<?xml version="1.0" encoding="UTF-8"?>
<svg id="Layer_2" data-name="Layer 2" xmlns="http://www.w3.org/2000/svg" xmlns:xlink="http://www.w3.org/1999/xlink" viewBox="0 0 399.23 470.82">
  <defs>
    <style>
      .cls-1 {
        fill: #ffd9d9;
      }

      .cls-2 {
        opacity: .18;
      }

      .cls-3 {
        fill: #ffd6d6;
      }

      .cls-4 {
        fill: #ff38d1;
      }

      .cls-5 {
        fill: #ffabd2;
      }

      .cls-6 {
        fill: #fff2f7;
      }

      .cls-7 {
        clip-path: url(#clippath);
        fill: none;
      }

      .cls-8 {
        fill: #ff7dc6;
      }
    </style>
    <clipPath id="clippath">
      <circle class="cls-4" cx="151.9" cy="229.28" r="151.86"/>
    </clipPath>
  </defs>
  <g id="Props">
    <g>
      <ellipse class="cls-2" cx="56.31" cy="461.02" rx="50.78" ry="9.8"/>
      <g>
        <path class="cls-6" d="m152.78,253.95c0,1.85-.34,3.73-1.06,5.56l-3.9,9.8-7.92,19.91-35.28,88.72-30.75,77.33c-2.28,5.73-7.82,9.49-13.98,9.49h0c-10.63,0-17.91-10.73-13.98-20.61l30.59-76.91,38.4-96.57,8.86-22.29c.11-.3.25-.58.38-.86,3.36-7.13,11.74-10.52,19.17-7.56,5.9,2.34,9.49,8.01,9.49,13.99Z"/>
        <g>
          <circle class="cls-4" cx="151.9" cy="229.28" r="151.86"/>
          <g class="cls-7">
            <circle class="cls-8" cx="166.99" cy="199.75" r="159.66"/>
            <path class="cls-5" d="m127.59,0l271.64,154.83s-35.25,50.46-114.65,176.33c12.29-22.62,19.27-48.55,19.27-76.11,0-88.18-71.48-159.66-159.66-159.66-53.28,0-100.46,26.09-129.46,66.2C61.24,77.41,127.59,0,127.59,0Z"/>
          </g>
        </g>
        <path class="cls-1" d="m74.75,338.42c-39.19-31.88-57.59-86.55-43.14-137.13,7.24-27.79,25.1-52.32,49.75-67.19,35.41-22.14,84.17-22.43,118.99,1.25,30.53,20.59,46.38,60.03,38.53,96.01-7.09,38.2-40.85,66.29-79.97,64.25-21.52-.93-43.07-11.56-54.52-30.19-14.69-22.75-12.72-55.89,7.53-74.64,11.85-11.1,29.33-15.75,45.07-11.89,10.45,2.41,20.24,8.68,25.94,17.84,8.65,13.51,8.19,32.07-2.15,44.29-6.75,7.82-17.59,11.84-27.67,10.02-10.06-1.6-3.12-5.41.99-5.28,10.6.34,21.04-6.52,23.68-17.75,3.45-12.56-2.72-26.66-14.35-32.23-9.61-4.65-21.56-4.36-30.91.73-13.61,6.96-19.72,22.47-18.32,37.08,4.75,42.77,58.98,51.11,85.81,22.77,7.91-8.07,12.73-18.84,14.9-29.87,6.53-30.55-10.11-63.85-38.42-77.04-45.88-21.84-102.07-.77-123.12,45.36-22.39,48.07-9.78,103.37,25.54,139.43.1.11.21.21.31.32,2.59,2.6-.97,6.62-3.86,4.35-.2-.16-.4-.32-.6-.48Z"/>
        <path class="cls-3" d="m65.39,224.88c3.12,38.14,23.28,75.04,57.21,93.47,32.36,17.98,73.37,13.57,101.51-10.53,21.32-17.75,34.52-44.24,37.82-71.65,5.38-45.16-14.79-90.81-54.76-113.79-2.72-1.6-5.61-2.84-8.41-4.35-3.07-1.6-1.18-6.32,2.18-5.31,3.7,1.19,7.56,2.27,11.13,3.88,2.19.9,5.17,2.12,7.19,3.29,1.2.65,4.09,2.19,5.25,2.82,1.08.6,3.91,2.51,5.03,3.21,31.66,20.86,50.59,58.24,52.12,95.81,3.23,52.73-28.62,106.47-79.78,123.52-29.37,9.88-62.63,6.13-88.93-10.3-28.23-17.43-47.1-46.54-53.01-78.61-1.43-7.75-2.14-15.73-2-23.62-.03-2.62.22-5.24.35-7.84.1-1.96,1.77-3.46,3.72-3.36,1.85.09,3.26,1.58,3.37,3.36h0Z"/>
      </g>
    </g>
  </g>
</svg>