<?xml version="1.0" encoding="UTF-8"?>
<svg id="Layer_2" data-name="Layer 2" xmlns="http://www.w3.org/2000/svg" viewBox="0 0 567.12 567.12">
  <defs>
    <style>
      .cls-1 {
        fill: #ececec;
      }
    </style>
  </defs>
  <g id="Props">
    <path class="cls-1" d="m564.64,257.61c-2.69-14.37-14.8-24.94-29.47-25.69-50.51-2.61-101.73-2.61-152.25,0-14.67.76-26.79,11.32-29.47,25.69-.98,5.24-1.63,10.37-2.03,15.45h-57.36v-57.36c5.09-.4,10.23-1.05,15.47-2.04,14.36-2.69,24.92-14.8,25.68-29.47,2.61-50.51,2.61-101.74,0-152.25-.76-14.66-11.32-26.78-25.68-29.47-17.71-3.31-34.2-3.31-51.92,0-14.37,2.69-24.94,14.81-25.69,29.47-2.61,50.51-2.61,101.74,0,152.25.76,14.67,11.32,26.79,25.69,29.47,5.24.98,10.37,1.63,15.45,2.03v57.36h-57.36c-.4-5.09-1.05-10.23-2.04-15.47-2.69-14.36-14.8-24.92-29.47-25.68-50.52-2.61-101.74-2.61-152.25,0-14.66.76-26.78,11.32-29.47,25.68-3.31,17.71-3.31,34.2,0,51.92,2.69,14.37,14.8,24.94,29.47,25.69,25.26,1.3,50.69,1.96,76.12,1.96s50.87-.65,76.12-1.96c14.67-.76,26.78-11.32,29.47-25.69.98-5.24,1.63-10.37,2.03-15.45h57.36v57.36c-5.09.4-10.23,1.05-15.47,2.04h0c-14.36,2.69-24.92,14.8-25.68,29.47-2.61,50.51-2.61,101.74,0,152.25.76,14.66,11.32,26.78,25.68,29.47,8.86,1.66,17.41,2.48,25.96,2.48s17.1-.83,25.96-2.48c14.37-2.69,24.94-14.8,25.69-29.47,2.61-50.51,2.61-101.74,0-152.25-.76-14.67-11.32-26.79-25.69-29.47-5.24-.98-10.37-1.63-15.45-2.03v-57.36h57.36c.4,5.09,1.05,10.23,2.03,15.47,2.69,14.36,14.8,24.92,29.47,25.68,25.26,1.31,50.69,1.96,76.13,1.96s50.86-.65,76.12-1.96c14.66-.76,26.78-11.32,29.47-25.68,3.31-17.71,3.31-34.21,0-51.92Zm-20.64,3.86c.74,3.96,1.28,7.8,1.64,11.6h-22.48v-20.67c3.64.16,7.29.31,10.93.49,4.94.26,9.02,3.78,9.92,8.58Zm-88.86,11.6h-26.02v-21.77c8.67-.18,17.34-.29,26.02-.31v22.08Zm0,21v22.08c-8.68-.02-17.35-.13-26.02-.31v-21.77h26.02Zm21,0h26.02v21.45c-8.66.26-17.34.45-26.02.55v-22Zm0-21v-22c8.68.1,17.35.29,26.02.55v21.45h-26.02Zm-92.13-20.18c8.02-.41,16.07-.74,24.12-1.02v21.2h-35.67c.36-3.79.9-7.64,1.64-11.6.9-4.8,4.97-8.33,9.92-8.58Zm-78.34-59.85c-3.96.74-7.81,1.28-11.61,1.64v-35.68h21.2c-.28,8.05-.6,16.1-1.02,24.12-.26,4.94-3.78,9.02-8.57,9.91Zm-32.6-102.05h-22c.1-8.68.29-17.36.55-26.02h21.45v26.02Zm21-26.02h21.45c.26,8.66.45,17.34.55,26.02h-22v-26.02Zm-21,47.02v26.02h-21.77c-.18-8.67-.29-17.34-.31-26.02h22.08Zm21,0h22.08c-.02,8.68-.13,17.35-.31,26.02h-21.77v-26.02Zm20.18-78.94c.19,3.64.33,7.29.49,10.93h-20.67v-22.48c3.8.36,7.65.9,11.61,1.64,4.79.9,8.32,4.97,8.57,9.91Zm-52.77-9.91c3.96-.74,7.8-1.28,11.6-1.64v22.48h-20.67c.16-3.64.31-7.29.49-10.93.26-4.94,3.79-9.02,8.58-9.92Zm-8.58,160c-.41-8.02-.74-16.07-1.02-24.12h21.2v35.67c-3.79-.36-7.64-.9-11.6-1.64-4.8-.9-8.33-4.97-8.58-9.92Zm-59.85,78.34c.74,3.96,1.28,7.81,1.64,11.61h-35.67v-21.2c8.05.28,16.1.6,24.12,1.02,4.94.25,9.02,3.78,9.91,8.57Zm-102.05,11.61h-26.02v-21.45c8.66-.26,17.34-.45,26.02-.55v22Zm0,21v22c-8.68-.1-17.35-.29-26.02-.55v-21.45h26.02Zm21,0h26.02v21.77c-8.67.18-17.34.29-26.02.31v-22.08Zm0-21v-22.08c8.68.02,17.35.13,26.02.31v21.77h-26.02Zm-78.94-20.18c3.64-.19,7.29-.33,10.93-.49v20.67h-22.48c.36-3.8.9-7.65,1.64-11.61.9-4.79,4.97-8.32,9.91-8.57Zm-9.92,52.77c-.74-3.96-1.28-7.8-1.64-11.6h22.48v20.67c-3.64-.16-7.29-.31-10.93-.49-4.94-.26-9.02-3.79-9.92-8.58Zm160,8.58c-8.02.41-16.07.74-24.12,1.02v-21.2h35.67c-.36,3.79-.9,7.64-1.64,11.6-.9,4.8-4.97,8.33-9.92,8.58Zm78.34,59.85h0c3.96-.74,7.81-1.28,11.61-1.64v35.67h-21.2c.28-8.05.6-16.1,1.02-24.12.26-4.94,3.78-9.02,8.57-9.91Zm32.6,102.05h22c-.1,8.68-.29,17.36-.55,26.02h-21.45v-26.02Zm-21,26.02h-21.45c-.26-8.67-.45-17.34-.55-26.02h22v26.02Zm21-47.02v-26.02h21.77c.18,8.67.29,17.34.31,26.02h-22.08Zm-21,0h-22.08c.02-8.68.13-17.35.31-26.02h21.77v26.02Zm-20.18,78.94c-.19-3.64-.33-7.29-.49-10.93h20.67v22.48c-3.8-.36-7.65-.9-11.61-1.64-4.79-.9-8.32-4.97-8.57-9.91Zm52.77,9.92c-3.96.74-7.8,1.28-11.6,1.64v-22.48h20.67c-.16,3.64-.31,7.29-.49,10.93-.26,4.94-3.79,9.02-8.58,9.92Zm8.58-160c.41,8.02.74,16.07,1.02,24.12h-21.2v-35.67c3.79.36,7.64.9,11.6,1.64,4.8.9,8.33,4.97,8.58,9.92Zm59.85-78.34c-.74-3.96-1.28-7.81-1.64-11.61h35.67v21.2c-8.05-.28-16.1-.6-24.12-1.02-4.94-.25-9.02-3.78-9.91-8.57Zm160,8.57c-3.64.19-7.29.33-10.93.49v-20.67h22.48c-.36,3.8-.9,7.65-1.64,11.61-.9,4.79-4.97,8.32-9.91,8.57Z"/>
  </g>
</svg>