<?xml version="1.0" encoding="UTF-8"?>
<svg id="Layer_2" data-name="Layer 2" xmlns="http://www.w3.org/2000/svg" xmlns:xlink="http://www.w3.org/1999/xlink" viewBox="0 0 906.96 669.25">
  <defs>
    <style>
      .cls-1 {
        fill: #fff;
      }

      .cls-2 {
        fill: #22b989;
      }

      .cls-3 {
        fill: #9c9089;
      }

      .cls-4 {
        fill: #c5cadb;
      }

      .cls-5 {
        fill: #dadff2;
      }

      .cls-6 {
        fill: #c1c7dd;
      }

      .cls-7 {
        fill: #bc7a56;
        stroke: #9e779e;
        stroke-width: 3.15px;
      }

      .cls-7, .cls-8 {
        stroke-miterlimit: 10;
      }

      .cls-9 {
        fill: #a8defc;
      }

      .cls-8 {
        fill: #f4cef4;
        stroke: #9b6547;
        stroke-width: 1.41px;
      }

      .cls-10 {
        clip-path: url(#clippath);
      }

      .cls-10, .cls-11 {
        fill: none;
      }

      .cls-12 {
        fill: #12895a;
      }

      .cls-11 {
        clip-path: url(#clippath-1);
      }

      .cls-13 {
        fill: #2ead4e;
      }
    </style>
    <clipPath id="clippath">
      <path class="cls-5" d="m543.94,608.03c.49,6.08-3.59,11.58-9.56,12.85-21.64,4.6-78.24,13.96-180.81,13.96s-154.75-9.15-175.35-13.8c-5.9-1.33-9.91-6.8-9.42-12.82l34.99-431.83h305.2l34.94,431.64Z"/>
    </clipPath>
    <clipPath id="clippath-1">
      <ellipse class="cls-9" cx="267.05" cy="383.52" rx="28.79" ry="31.46"/>
    </clipPath>
  </defs>
  <g id="Props">
    <g>
      <path class="cls-13" d="m44.97,517.5c9.49,0,18.28,2.95,25.54,7.96,9.44-13.76,25.27-22.8,43.22-22.8.46,0,.92.03,1.38.04,6.07-16.41,21.86-28.11,40.38-28.11,12.84,0,24.36,5.63,32.25,14.55,6.79-13.84,21.01-23.38,37.47-23.38,23.04,0,41.71,18.68,41.71,41.71,0,3.84-.53,7.55-1.5,11.09,2.31-.37,4.67-.58,7.09-.58,24.7,0,44.72,20.02,44.72,44.72,0,24.7-20.02,44.72-44.72,44.72-13.66,0-214.58,0-227.55,0-24.84,0-44.97-20.13-44.97-44.97,0-24.84,20.13-44.97,44.97-44.97Z"/>
      <path class="cls-1" d="m341.75,584.45c-21.02,0-38.13-17.09-38.13-38.1v-109.98c0-21.01,17.1-38.1,38.13-38.1,8.26,0,16.15,2.65,22.82,7.65l73.22,54.99c9.67,7.26,15.21,18.36,15.21,30.45s-5.54,23.19-15.21,30.45l-73.22,54.99c-6.67,5.01-14.55,7.65-22.82,7.65Z"/>
      <path class="cls-12" d="m689.37,582c.1-.74.16-1.5.16-2.27,0-9.37-7.6-16.97-16.97-16.97-3.95,0-7.59,1.36-10.47,3.62.07-.81.12-1.64.12-2.47,0-15.09-12.23-27.32-27.32-27.32-10.49,0-19.6,5.92-24.18,14.6-4.62-5.58-11.59-9.13-19.4-9.13-13.9,0-25.17,11.27-25.17,25.17,0,2.41.34,4.73.98,6.93-2.22-.67-4.57-1.04-7.02-1.04-13.34,0-24.16,10.82-24.16,24.16s10.82,28.76,24.16,28.76h119.93c12.71,0,23.01-10.3,23.01-23.01,0-9.38-5.62-17.45-13.67-21.03Z"/>
      <g>
        <path class="cls-5" d="m543.94,608.03c.49,6.08-3.59,11.58-9.56,12.85-21.64,4.6-78.24,13.96-180.81,13.96s-154.75-9.15-175.35-13.8c-5.9-1.33-9.91-6.8-9.42-12.82l34.99-431.83h305.2l34.94,431.64Z"/>
        <g class="cls-10">
          <path class="cls-6" d="m344.73,304.39c-.41,5.04-4.57,8.94-9.62,9.03l-34.56.62c-4.64.08-8.68-3.16-9.6-7.71l-4.38-21.56c0-2.77,2.25-5.02,5.02-5.02l49.84.14c2.69,0,4.88,2.18,4.88,4.88l-1.58,19.62Z"/>
          <path class="cls-6" d="m490.27,478.48h46.71c2.62,0,4.75,2.13,4.75,4.75v22.51c0,3.29-2.67,5.97-5.97,5.97h-43.5c-3.79,0-6.87-3.08-6.87-6.87v-21.48c0-2.69,2.19-4.88,4.88-4.88Z"/>
          <path class="cls-6" d="m317.9,591.42h-43.15c-3.9,0-7.06-3.16-7.06-7.06v-12.73c0-4.81,3.6-8.85,8.38-9.41,11.02-1.28,29.97-3.39,38.59-3.81,2.57-.13,4.83,1.67,5.29,4.21l4.08,22.67c0,3.39-2.75,6.13-6.13,6.13Z"/>
          <path class="cls-6" d="m216.08,462.76h-34.18c-3.9,0-7.06-3.16-7.06-7.06v-21.15c0-2.77,2.25-5.02,5.02-5.02l35.54,1.56c5.63.25,10.11,4.78,10.3,10.41l.41,12.35c-.61,5.08-4.91,8.9-10.03,8.9Z"/>
          <path class="cls-6" d="m517.22,254.04h-34.18c-3.9,0-7.06-3.16-7.06-7.06v-21.15c0-2.77,2.25-5.02,5.02-5.02l35.54,1.56c5.63.25,10.11,4.78,10.3,10.41l.41,12.35c-.61,5.08-4.91,8.9-10.03,8.9Z"/>
          <g>
            <path class="cls-7" d="m193.55,633v-72.79c0-23.01,17.46-40.3,38.8-38.43h0c21.34,1.87,38.8,22.22,38.8,45.23v72.79s-77.6-6.8-77.6-6.8Z"/>
            <line class="cls-8" x1="202.33" y1="538.27" x2="202.33" y2="655.97"/>
            <line class="cls-8" x1="232.35" y1="521.78" x2="227.98" y2="659.3"/>
            <line class="cls-8" x1="254.04" y1="533.32" x2="253.63" y2="660.83"/>
            <line class="cls-8" x1="266.08" y1="550.51" x2="266.08" y2="664.75"/>
          </g>
        </g>
      </g>
      <path class="cls-3" d="m514.02,176.71c4.48,0,8.09-3.69,7.97-8.17-.05-1.92-.12-3.86-.12-5.8C521.88,72.86,449.02,0,359.14,0s-162.74,72.86-162.74,162.74c0,1.94-.07,3.87-.12,5.8-.12,4.48,3.49,8.17,7.97,8.17h309.76Z"/>
      <path class="cls-2" d="m426.78,604.26c6.86,0,13.21,2.13,18.46,5.75,6.82-9.95,18.27-16.47,31.24-16.47.33,0,.66.02,1,.03,4.39-11.86,15.8-20.32,29.19-20.32,9.28,0,17.61,4.07,23.31,10.51,4.9-10.01,15.19-16.9,27.08-16.9,16.65,0,30.15,13.5,30.15,30.15,0,2.78-.38,5.46-1.08,8.01,1.67-.27,3.38-.42,5.12-.42,17.85,0,32.32,14.47,32.32,32.32,0,17.85-14.47,32.32-32.32,32.32-9.87,0-155.08,0-164.45,0-17.95,0-32.5-14.55-32.5-32.5,0-17.95,14.55-32.5,32.5-32.5Z"/>
      <g>
        <circle class="cls-9" cx="395.19" cy="494.32" r="70.68"/>
        <path class="cls-4" d="m395.19,576.12c-45.11,0-81.81-36.7-81.81-81.81s36.7-81.81,81.81-81.81,81.81,36.7,81.81,81.81-36.7,81.81-81.81,81.81Zm0-141.35c-32.83,0-59.54,26.71-59.54,59.54s26.71,59.54,59.54,59.54,59.54-26.71,59.54-59.54-26.71-59.54-59.54-59.54Z"/>
      </g>
      <g>
        <ellipse class="cls-4" cx="267.05" cy="383.52" rx="40.84" ry="44.61"/>
        <g>
          <ellipse class="cls-9" cx="267.05" cy="383.52" rx="28.79" ry="31.46"/>
          <g class="cls-11">
            <rect class="cls-1" x="255.74" y="346.91" width="7.09" height="71.3" transform="translate(173.97 -71.65) rotate(23.49)"/>
            <rect class="cls-1" x="268.66" y="352.56" width="7.09" height="71.3" transform="translate(177.3 -76.33) rotate(23.49)"/>
          </g>
        </g>
      </g>
      <g>
        <rect class="cls-1" x="685.2" y="512.13" width="199.77" height="14.66"/>
        <rect class="cls-1" x="685.2" y="578.11" width="199.77" height="14.66"/>
        <path class="cls-1" d="m689.81,451.65h.87c8.61,0,15.6,6.99,15.6,15.6v184.17h-32.07v-184.17c0-8.61,6.99-15.6,15.6-15.6Z"/>
        <path class="cls-1" d="m756.7,451.65h.87c8.61,0,15.6,6.99,15.6,15.6v184.17h-32.07v-184.17c0-8.61,6.99-15.6,15.6-15.6Z"/>
        <path class="cls-1" d="m823.6,451.65h.87c8.61,0,15.6,6.99,15.6,15.6v184.17h-32.07v-184.17c0-8.61,6.99-15.6,15.6-15.6Z"/>
        <path class="cls-1" d="m890.49,451.65h.87c8.61,0,15.6,6.99,15.6,15.6v184.17h-32.07v-184.17c0-8.61,6.99-15.6,15.6-15.6Z"/>
      </g>
    </g>
  </g>
</svg>