<?xml version="1.0" encoding="UTF-8"?>
<svg id="Layer_2" data-name="Layer 2" xmlns="http://www.w3.org/2000/svg" viewBox="0 0 224.43 277.65">
  <defs>
    <style>
      .cls-1 {
        fill: #fff;
      }

      .cls-2 {
        fill: #00e454;
      }

      .cls-3 {
        fill: #e0f;
      }

      .cls-4 {
        fill: #ab3fe4;
      }

      .cls-5 {
        fill: #fccf2c;
      }

      .cls-6 {
        fill: #ff4747;
      }

      .cls-7 {
        fill: #ffb0ee;
      }

      .cls-8 {
        fill: #fcb92c;
      }
    </style>
  </defs>
  <g id="Anim">
    <g>
      <ellipse class="cls-7" cx="95.83" cy="121.08" rx="101.28" ry="51.69" transform="translate(-38.6 45.09) rotate(-22.16)"/>
      <path class="cls-1" d="m137.73,53.73c1.38-5.48,1.11-11.42-1.18-17.05-5.73-14.06-28.16-18.22-35.84-15.09-7.68,3.12-15.54,3.14-21.33-7.34-10.01-17.14-35.44-21.59-58.45,2.29,12.32.22,14.45,7.95,15.54,15.19,1.09,7.18-3.07,17.15-17.06,22.98C6.99,59.88-.43,73.28,2.62,86.4c1.83,7.87,6.67,13.92,12.85,17.57-11.64,7.37-16.36,22.62-9.82,35.62,5.92,11.77,19.86,17.75,32.46,13.92,9-2.74,15.41-9.5,18.13-17.57,1.17-3.49,3.7-6.37,7.11-7.76,3.38-1.38,7.16-1.14,10.4.54,6.89,3.56,15.24,4.21,22.99,1.05,7.31-2.98,12.64-8.75,15.27-15.58,1.73-4.48,5.31-7.99,9.76-9.8,4.52-1.84,9.59-1.7,14.05.29,7.92,3.55,17.49,3.36,25.83-1.78,10.18-6.27,15.1-18.87,11.96-30.41-4.32-15.88-21.02-24.1-35.87-18.74Z"/>
      <path class="cls-3" d="m201.62,118.76c-1.85-7.56-8.63-12.98-16.41-12.83-2.86.05-5.78.63-8.62,1.79-9.83,4-15.5,13.66-14.32,23.1-5.83-5.16-14.3-6.89-22-3.76-8.62,3.51-13.66,12.06-13.13,20.85-5.73-4.23-13.47-5.47-20.56-2.58-7.08,2.89-11.76,9.18-12.9,16.21-5.77-6.67-15.35-9.26-23.96-5.75-7.11,2.89-11.79,9.22-12.91,16.28-6.04-6.59-16.42-8.88-25.98-4.99-.08.03-.17.07-.25.1-10.83,4.54-15.02,17.74-9.19,27.93,12.26,21.43,40.74,72.2,46.14,81.1,2.85,4.71,38.94-2.25,81.86-19.27,42.92-17.01,76.29-39.26,75.01-44.63-1.89-7.95-16.88-69.48-22.77-93.56Z"/>
      <path class="cls-5" d="m122.2,63.05l6.5,3.79c.56.33,1.24.35,1.82.08l6.81-3.21c1.47-.69,3.1.6,2.75,2.19l-1.6,7.36c-.14.63.05,1.29.49,1.76l5.16,5.49c1.11,1.18.39,3.13-1.23,3.3l-7.49.76c-.64.06-1.21.44-1.52,1.01l-3.62,6.6c-.78,1.43-2.86,1.33-3.52-.15l-3.03-6.89c-.26-.59-.79-1.02-1.43-1.14l-7.4-1.41c-1.6-.3-2.15-2.31-.94-3.39l5.62-5.01c.48-.43.72-1.07.64-1.71l-.95-7.47c-.2-1.61,1.53-2.76,2.93-1.94Z"/>
      <path class="cls-6" d="m65.78,30.83l6.5,3.79c.56.33,1.24.35,1.82.08l6.81-3.21c1.47-.69,3.1.6,2.75,2.19l-1.6,7.36c-.14.63.05,1.29.49,1.76l5.16,5.49c1.11,1.18.39,3.13-1.23,3.3l-7.49.76c-.64.06-1.21.44-1.52,1.01l-3.62,6.6c-.78,1.43-2.86,1.33-3.52-.15l-3.03-6.89c-.26-.59-.79-1.02-1.43-1.14l-7.4-1.41c-1.6-.3-2.15-2.31-.94-3.39l5.62-5.01c.48-.43.72-1.07.64-1.71l-.95-7.47c-.2-1.61,1.53-2.76,2.93-1.94Z"/>
      <path class="cls-2" d="m91.8,86.76l2.81,6.98c.24.6.76,1.04,1.39,1.18l7.35,1.64c1.59.36,2.08,2.38.83,3.42l-5.77,4.83c-.5.41-.75,1.05-.69,1.69l.71,7.5c.15,1.62-1.62,2.71-3,1.85l-6.38-4c-.55-.34-1.23-.39-1.82-.14l-6.91,2.99c-1.49.65-3.08-.7-2.68-2.28l1.83-7.3c.16-.63,0-1.29-.43-1.77l-4.98-5.65c-1.07-1.22-.28-3.14,1.34-3.25l7.51-.51c.64-.04,1.23-.4,1.55-.96l3.83-6.48c.83-1.4,2.9-1.24,3.51.27Z"/>
      <path class="cls-4" d="m47.47,61.01l2.81,6.98c.24.6.76,1.04,1.39,1.18l7.35,1.64c1.59.36,2.08,2.38.83,3.42l-5.77,4.83c-.5.41-.75,1.05-.69,1.69l.71,7.5c.15,1.62-1.62,2.71-3,1.85l-6.38-4c-.55-.34-1.23-.39-1.82-.14l-6.91,2.99c-1.49.65-3.08-.7-2.68-2.28l1.83-7.3c.16-.63,0-1.29-.43-1.77l-4.98-5.65c-1.07-1.22-.28-3.14,1.34-3.25l7.51-.51c.64-.04,1.23-.4,1.55-.96l3.83-6.48c.83-1.4,2.9-1.24,3.51.27Z"/>
      <path class="cls-8" d="m42.42,107.49l1.24,7.43c.11.64.52,1.18,1.1,1.45l6.82,3.19c1.47.69,1.52,2.77.07,3.52l-6.68,3.47c-.57.3-.96.86-1.04,1.5l-.93,7.47c-.2,1.61-2.16,2.3-3.32,1.16l-5.37-5.28c-.46-.45-1.11-.65-1.75-.53l-7.39,1.43c-1.6.31-2.85-1.35-2.13-2.8l3.36-6.74c.29-.58.27-1.26-.04-1.83l-3.64-6.59c-.79-1.42.4-3.13,2.01-2.89l7.45,1.12c.64.1,1.28-.13,1.72-.6l5.14-5.5c1.11-1.19,3.1-.59,3.37,1.02Z"/>
    </g>
  </g>
</svg>