<?xml version="1.0" encoding="UTF-8"?>
<svg id="Layer_2" data-name="Layer 2" xmlns="http://www.w3.org/2000/svg" xmlns:xlink="http://www.w3.org/1999/xlink" viewBox="0 0 278.23 347.14">
  <defs>
    <style>
      .cls-1 {
        fill: #fff;
      }

      .cls-2 {
        stroke: #ffa1f6;
        stroke-miterlimit: 10;
        stroke-width: 19px;
      }

      .cls-2, .cls-3, .cls-4 {
        fill: none;
      }

      .cls-5 {
        fill: #ffb8ff;
      }

      .cls-6 {
        fill: #ff3838;
      }

      .cls-7 {
        fill: #e391ff;
      }

      .cls-3 {
        clip-path: url(#clippath);
      }

      .cls-4 {
        clip-path: url(#clippath-1);
      }

      .cls-8 {
        fill: #ff00b7;
      }
    </style>
    <clipPath id="clippath">
      <rect class="cls-1" x="150.55" y="145.61" width="61.24" height="151.86"/>
    </clipPath>
    <clipPath id="clippath-1">
      <path class="cls-5" d="m179.68,197.1c-54.34,0-98.55-44.21-98.55-98.55S125.34,0,179.68,0s98.55,44.21,98.55,98.55-44.21,98.55-98.55,98.55Zm0-175.68c-42.53,0-77.13,34.6-77.13,77.13s34.6,77.13,77.13,77.13,77.13-34.6,77.13-77.13S222.21,21.42,179.68,21.42Z"/>
    </clipPath>
  </defs>
  <g id="Props">
    <g>
      <path class="cls-2" d="m8.72,148.98s66.4,153.87,156.15,46.76"/>
      <g>
        <rect class="cls-1" x="150.55" y="145.61" width="61.24" height="151.86"/>
        <g class="cls-3">
          <g>
            <polygon class="cls-6" points="221.53 202.35 145.79 232.35 145.79 210.49 221.53 180.5 221.53 202.35"/>
            <polygon class="cls-6" points="221.53 240.15 145.79 270.14 145.79 248.28 221.53 218.29 221.53 240.15"/>
            <polygon class="cls-6" points="221.53 280.3 145.79 310.29 145.79 288.43 221.53 258.44 221.53 280.3"/>
          </g>
        </g>
      </g>
      <path class="cls-8" d="m116.03,286.1h133.97c8.2,0,14.86,6.66,14.86,14.86v46.18H101.17v-46.18c0-8.2,6.66-14.86,14.86-14.86Z"/>
      <g>
        <path class="cls-5" d="m179.68,197.1c-54.34,0-98.55-44.21-98.55-98.55S125.34,0,179.68,0s98.55,44.21,98.55,98.55-44.21,98.55-98.55,98.55Zm0-175.68c-42.53,0-77.13,34.6-77.13,77.13s34.6,77.13,77.13,77.13,77.13-34.6,77.13-77.13S222.21,21.42,179.68,21.42Z"/>
        <g class="cls-4">
          <g>
            <polygon class="cls-7" points="283.2 48.41 289.2 54.98 243.95 96.45 237.95 89.88 283.2 48.41"/>
            <polygon class="cls-7" points="266.62 23.48 274.14 28.22 241.52 80.16 234 75.42 266.62 23.48"/>
            <polygon class="cls-7" points="244.56 3.9 253.05 6.52 235.05 65.12 226.57 62.49 244.56 3.9"/>
            <polygon class="cls-7" points="218.22 -9.43 227.09 -9.11 224.99 52.11 216.12 51.79 218.22 -9.43"/>
            <polygon class="cls-7" points="188.84 -15.59 197.47 -17.65 211.78 41.88 203.15 43.94 188.84 -15.59"/>
            <polygon class="cls-7" points="157.92 -13.75 165.66 -18.08 195.66 35.26 187.92 39.59 157.92 -13.75"/>
            <polygon class="cls-7" points="129.04 -3.9 135.31 -10.16 178.61 33.05 172.34 39.32 129.04 -3.9"/>
            <polygon class="cls-7" points="104.51 12.66 108.91 4.97 162.06 35.23 157.66 42.92 104.51 12.66"/>
            <polygon class="cls-7" points="85.3 34.58 87.56 26.01 146.71 41.5 144.45 50.07 85.3 34.58"/>
            <polygon class="cls-7" points="72.25 60.66 72.21 51.8 133.34 51.43 133.38 60.29 72.25 60.66"/>
            <polygon class="cls-7" points="66.25 89.68 63.86 81.15 122.7 64.58 125.08 73.12 66.25 89.68"/>
            <polygon class="cls-7" points="68.11 120.22 63.5 112.66 115.62 80.74 120.23 88.3 68.11 120.22"/>
            <polygon class="cls-7" points="77.92 148.96 71.44 142.93 112.97 98.09 119.45 104.12 77.92 148.96"/>
            <polygon class="cls-7" points="94.42 173.34 86.57 169.23 114.79 115.01 122.64 119.12 94.42 173.34"/>
            <polygon class="cls-7" points="116.23 192.41 107.59 190.48 120.83 130.8 129.47 132.73 116.23 192.41"/>
            <polygon class="cls-7" points="142.15 205.35 133.3 205.72 130.63 144.64 139.48 144.27 142.15 205.35"/>
            <polygon class="cls-7" points="170.97 211.28 162.53 213.98 143.77 155.78 152.21 153.07 170.97 211.28"/>
            <polygon class="cls-7" points="201.28 209.41 193.88 214.3 160.02 163.35 167.41 158.46 201.28 209.41"/>
            <polygon class="cls-7" points="229.88 199.62 224.09 206.34 177.67 166.46 183.46 159.74 229.88 199.62"/>
            <polygon class="cls-7" points="254.11 183.18 250.3 191.2 194.96 164.99 198.77 156.98 254.11 183.18"/>
            <polygon class="cls-7" points="273.05 161.48 271.44 170.21 211.17 159.21 212.79 150.47 273.05 161.48"/>
            <polygon class="cls-7" points="285.88 135.71 286.58 144.56 225.49 149.54 224.78 140.68 285.88 135.71"/>
            <polygon class="cls-7" points="291.73 107.09 294.75 115.45 237.12 136.42 234.1 128.06 291.73 107.09"/>
            <polygon class="cls-7" points="289.84 77.01 295.02 84.24 245.2 120.08 240.02 112.85 289.84 77.01"/>
          </g>
        </g>
      </g>
    </g>
  </g>
</svg>