<?xml version="1.0" encoding="UTF-8"?>
<svg id="Layer_2" data-name="Layer 2" xmlns="http://www.w3.org/2000/svg" viewBox="0 0 320 396.99">
  <defs>
    <style>
      .cls-1 {
        fill: #00bd8d;
      }
    </style>
  </defs>
  <g id="Anim">
    <g>
      <path class="cls-1" d="m201.85,374.25c6.86-1.97,24.88-9.74,31.38-12.41-.64,4.59-1.43,11.13-4.84,18.33,4.54-3.36,24.32-36.33,27.75-39.26.16,8.83-1.72,15.58-6.86,30.49,17.23-17.38,30.97-49.66,31.76-63.58,3.14,9.79,4.79,15.07,8.65,38.4,7.14-27.23,9.68-41.97,5.72-70.24,7.05,8.4,9.69,17.43,16.47,36.16.78-44.86-8.4-74.62-9.5-78.74,7.62,5.73,12.93,13.08,17.6,22.45-4.96-40.11-18.9-66.91-34.98-88.48,8.99,5.57,16.3,15.7,29.81,24.35-13.87-27.76-29.25-47.44-50.86-65.21,9.35,4.54,22.36,11.53,31.59,16.65-14.41-20.29-46.64-42.45-46.64-42.45,0,0,8.75,3.17,22.8,9.3-14.99-17.75-44.51-39.14-44.51-39.14,0,0,6.96,1.06,18.44,6.03C206.88,34.19,153.16,13.67,102.7,28.12h0C52.23,42.58,17.53,88.43,7.25,145.19c7.1-10.29,12.45-14.88,12.45-14.88,0,0-13.71,33.77-17.03,56.77,8.67-12.63,14.42-19.96,14.42-19.96,0,0-15.6,35.87-17.08,60.71,5.12-9.24,12.46-22.06,17.98-30.86-8.92,26.52-11.55,51.36-8.62,82.25,6.88-14.49,7.72-26.95,12.39-36.44-2.21,26.81.15,56.93,17.18,93.58-1-10.42-.38-19.47,3.04-28.37,1.25,4.08,9.23,34.18,33.64,71.83-4.17-19.48-6.71-28.54-5.18-39.4,11.61,26.08,21.57,37.24,42.05,56.56-9.07-21.83-10.48-27.19-12.99-37.16,8.04,11.39,36.78,31.5,60.61,37.12-12.25-9.93-17.42-14.66-21.96-22.23,4.46.67,38.7,18.17,44.33,18.61-6.7-4.31-10.83-9.44-13.81-12.99,6.92-1.18,26.33-4.12,33.19-6.09"/>
      <g>
        <path class="cls-1" d="m103.73,21.92c3.33,11.61-8.89,16.12-12.21,4.51-3.33-11.61-18.43-17.34-13.48-18.76,4.95-1.42,22.37,2.64,25.69,14.25Z"/>
        <path class="cls-1" d="m99.01,31.38c3.33,11.61-8.89,16.12-12.21,4.51-3.33-11.61-18.43-17.34-13.48-18.76,4.95-1.42,22.37,2.64,25.69,14.25Z"/>
        <path class="cls-1" d="m101.4,25.29c3.33,11.61,14.48,8.41,11.15-3.19-3.33-11.61,2.71-23.4-2.24-21.98-4.95,1.42-12.23,13.56-8.91,25.17Z"/>
        <path class="cls-1" d="m108.54,25.53c.31,12.07,11.9,11.78,11.59-.29s8.49-21.97,3.34-21.84-15.24,10.06-14.94,22.13Z"/>
      </g>
    </g>
  </g>
</svg>