<?xml version="1.0" encoding="UTF-8"?>
<svg id="Layer_2" data-name="Layer 2" xmlns="http://www.w3.org/2000/svg" viewBox="0 0 206.22 206.22">
  <defs>
    <style>
      .cls-1 {
        fill: #ff7db7;
      }

      .cls-2 {
        fill: #fbd7ab;
      }

      .cls-3 {
        fill: #ff8fc1;
      }

      .cls-4 {
        fill: #fbc07c;
      }

      .cls-5 {
        fill: #ff69ac;
      }

      .cls-6 {
        fill: #ececec;
      }
    </style>
  </defs>
  <g id="Anim">
    <g>
      <path class="cls-3" d="m206.22,103.11c0,56.95-46.16,103.11-103.11,103.11S0,160.06,0,103.11,46.16,0,103.11,0s103.11,46.16,103.11,103.11Zm-102.85-39.54c-21.55,0-39.01,17.47-39.01,39.01s17.47,39.01,39.01,39.01,39.01-17.47,39.01-39.01-17.47-39.01-39.01-39.01Z"/>
      <path class="cls-1" d="m33.25,172.82c-1.52-6.92-2.33-14.1-2.33-21.48,0-54.73,44.09-99.11,98.47-99.11,30.25,0,57.31,13.73,75.37,35.32.72,4.92,1.09,9.95,1.09,15.07,0,24.9-8.79,47.75-23.44,65.6.42-.25.84-.49,1.23-.72,14.13-17.65,22.59-40.03,22.59-64.4,0-6.15-.54-12.18-1.57-18.04-13.93-36.52-49.43-62.48-91.03-62.48-53.75,0-97.33,43.34-97.33,96.81,0,19.74,5.95,38.09,16.14,53.4.22,0,.45.02.67.02.05,0,.1,0,.15,0Zm-12.92-41.79h-.13c-1.76,0-3.18-1.43-3.18-3.18s1.43-3.18,3.18-3.18h.13c1.76,0,3.18,1.43,3.18,3.18s-1.43,3.18-3.18,3.18Z"/>
      <path class="cls-5" d="m204.76,87.56c-18.06-21.6-45.12-35.32-75.37-35.32-54.38,0-98.47,44.37-98.47,99.11,0,7.38.81,14.56,2.33,21.48,3.35-.02,5.84-.83,8.25-1.62,2.29-.75,4.44-1.45,7.36-1.45,1.29,0,2.64.14,4.12.42h.05c5.24.86,7.69,2.71,10.28,4.67,3.09,2.35,6.27,4.76,13.36,5.41h.06c.75.05,1.47.08,2.17.08,5.65,0,8.82-1.56,11.89-3.07,2.86-1.41,5.56-2.74,10.58-2.74.18,0,.37,0,.56,0h.29c5.15,0,7.84,1.29,10.68,2.67l.04.02c2.97,1.44,6.03,2.92,11.5,2.92.81,0,1.66-.03,2.54-.1h.05c6.98-.72,10.2-2.92,13.31-5.04,2.7-1.83,5.24-3.56,10.59-4.36h.08c1.64-.3,3.14-.45,4.56-.45,2.66,0,4.65.5,6.75,1.04,2.15.54,4.37,1.11,7.29,1.11h0c2.18,0,4.48-.31,7.05-.96l.07-.02c.71-.2,3.33-1.74,5.65-3.12,14.65-17.86,23.44-40.7,23.44-65.6,0-5.12-.37-10.15-1.09-15.07Zm-155.7,18.26h-.13c-1.76,0-3.18-1.43-3.18-3.18s1.43-3.18,3.18-3.18h.13c1.76,0,3.18,1.43,3.18,3.18s-1.43,3.18-3.18,3.18Zm12.31,39.5h-.13c-1.76,0-3.18-1.43-3.18-3.18s1.43-3.18,3.18-3.18h.13c1.76,0,3.18,1.43,3.18,3.18s-1.43,3.18-3.18,3.18Zm67.45,12.85h-.13c-1.76,0-3.18-1.43-3.18-3.18s1.43-3.18,3.18-3.18h.13c1.76,0,3.18,1.43,3.18,3.18s-1.43,3.18-3.18,3.18Zm12.6-45.67c-.26.87-.57,1.72-.9,2.56-.3.75-.63,1.5-1,2.23-.15.37-.31.74-.47,1.11-.26.77-.56,1.51-.88,2.25-1.11,2.54-2.56,4.89-4.36,7.03-.81.97-1.69,1.89-2.65,2.77-.88.95-1.81,1.83-2.77,2.65-.48.41-.98.79-1.48,1.17-2.52,1.86-5.29,3.28-8.31,4.26-.82.43-1.65.8-2.49,1.15-3.94,1.63-8.12,2.38-12.55,2.21-5.95,0-11.53-1.4-16.62-3.87-.57-.27-1.13-.56-1.68-.86-.15-.08-.3-.17-.45-.26-.03-.02-.06-.04-.09-.05-.39-.22-.79-.44-1.18-.68-1.45-.86-2.85-1.82-4.17-2.86-1.17-.9-2.31-1.85-3.42-2.86-.93-.86-1.8-1.76-2.6-2.72-.11-.13-.21-.26-.32-.39-.88-1.07-1.68-2.2-2.42-3.38-.55-.87-1.06-1.77-1.53-2.68-.28-.56-.55-1.12-.81-1.7-2.49-5.14-3.89-10.91-3.89-17,0-21.55,17.47-39.01,39.01-39.01,11.09,0,21.09,4.63,28.19,12.06,2.67,2.55,4.81,5.53,6.46,8.76.01.03.03.06.04.08.51,1.01.97,2.05,1.39,3.11.14.36.28.72.41,1.08.25.68.47,1.36.69,2.05.06.19.12.38.17.56.05.17.1.34.15.51.46,1.61.83,3.26,1.09,4.95.11.69.21,1.38.3,2.06.02.14.03.28.05.42.14,1.2.23,2.41.29,3.61.08,2.02-.03,3.98-.33,5.9-.2,1.28-.48,2.53-.84,3.76Zm17.53,12.16c0,1.76-1.43,3.18-3.18,3.18h-.13c-1.76,0-3.18-1.43-3.18-3.18h0c0-1.76,1.43-3.18,3.18-3.18h.13c1.76,0,3.18,1.43,3.18,3.18h0Zm17.34,26.67h-.13c-1.76,0-3.18-1.43-3.18-3.18s1.43-3.18,3.18-3.18h.13c1.76,0,3.18,1.43,3.18,3.18s-1.43,3.18-3.18,3.18Zm12.4-60.43h-.13c-1.76,0-3.18-1.43-3.18-3.18s1.43-3.18,3.18-3.18h.13c1.76,0,3.18,1.43,3.18,3.18s-1.43,3.18-3.18,3.18Z"/>
      <path class="cls-4" d="m26.9,172.03c-.21-.06-.43-.12-.64-.18,18.88,21.1,46.31,34.38,76.86,34.38,32.58,0,61.63-15.12,80.52-38.71-.39.23-.8.47-1.23.72-2.33,1.38-4.95,2.92-5.65,3.12l-.07.02c-2.57.64-4.87.96-7.05.96h0c-2.92,0-5.14-.56-7.29-1.11-2.1-.53-4.09-1.04-6.75-1.04-1.42,0-2.92.14-4.56.43h-.08c-5.36.81-7.9,2.54-10.59,4.37-3.11,2.12-6.33,4.31-13.31,5.03h-.05c-.87.07-1.73.11-2.54.11-5.47,0-8.53-1.48-11.5-2.92l-.04-.02c-2.84-1.37-5.53-2.67-10.68-2.67h-.29c-.19,0-.38,0-.56,0-5.01,0-7.72,1.33-10.58,2.74-3.07,1.51-6.24,3.07-11.89,3.07-.7,0-1.42-.02-2.17-.07h-.06c-7.09-.66-10.26-3.06-13.36-5.41-2.59-1.96-5.04-3.81-10.28-4.66h-.05c-1.48-.29-2.83-.42-4.12-.42-2.92,0-5.07.7-7.36,1.45-2.41.79-4.9,1.59-8.25,1.62-.05,0-.1,0-.15,0-.22,0-.45-.02-.67-.02-1.72-.05-3.51-.29-5.47-.76h-.06Zm22.03,13.84c2.86-.93,5.32-1.74,9.79-.89h.08c4.46.74,6.46,2.26,8.79,4.02l12.89,5.16c.71.05,1.4.07,2.04.07,5.44,0,8.58-1.55,11.38-2.93,2.66-1.31,4.96-2.43,9.52-2.35h.08c4.55-.04,6.79,1.06,9.39,2.31,3.11,1.51,6.64,3.21,13.42,2.69h.08c6.66-.69,9.87-2.88,12.69-4.8,2.42-1.65,4.51-3.07,9.09-3.75h.08c4.53-.81,6.96-.2,9.76.51.05.01.09.03.14.04-15.68,10.3-34.43,16.31-54.56,16.31s-38.98-6.03-54.69-16.39t0,0Z"/>
      <path class="cls-2" d="m158.17,185.95s-.1-.03-.14-.04c-2.8-.71-5.23-1.33-9.76-.52h-.08c-4.58.7-6.67,2.12-9.09,3.76-2.82,1.92-6.03,4.11-12.69,4.79h-.08c-6.78.53-10.31-1.17-13.42-2.68-2.6-1.26-4.84-2.35-9.39-2.31h-.08c-4.56-.09-6.87,1.04-9.52,2.35-2.81,1.38-5.95,2.93-11.38,2.93-.65,0-1.33-.02-2.04-.07l-12.89-5.16c-2.33-1.76-4.33-3.28-8.79-4.01h-.08c-4.47-.86-6.93-.05-9.79.88t0,0c15.71,10.36,34.51,16.39,54.69,16.39s38.88-6,54.56-16.31Z"/>
      <path class="cls-6" d="m188.68,84.53h-.13c-1.76,0-3.18,1.43-3.18,3.18s1.43,3.18,3.18,3.18h.13c1.76,0,3.18-1.43,3.18-3.18s-1.43-3.18-3.18-3.18Z"/>
      <path class="cls-6" d="m155.76,121.47h-.13c-1.76,0-3.18,1.43-3.18,3.18h0c0,1.76,1.43,3.18,3.18,3.18h.13c1.76,0,3.18-1.43,3.18-3.18h0c0-1.76-1.43-3.18-3.18-3.18Z"/>
      <path class="cls-6" d="m61.37,138.95h-.13c-1.76,0-3.18,1.43-3.18,3.18s1.43,3.18,3.18,3.18h.13c1.76,0,3.18-1.43,3.18-3.18s-1.43-3.18-3.18-3.18Z"/>
      <path class="cls-6" d="m20.33,124.66h-.13c-1.76,0-3.18,1.43-3.18,3.18s1.43,3.18,3.18,3.18h.13c1.76,0,3.18-1.43,3.18-3.18s-1.43-3.18-3.18-3.18Z"/>
      <path class="cls-6" d="m49.06,99.45h-.13c-1.76,0-3.18,1.43-3.18,3.18s1.43,3.18,3.18,3.18h.13c1.76,0,3.18-1.43,3.18-3.18s-1.43-3.18-3.18-3.18Z"/>
      <path class="cls-6" d="m128.82,151.8h-.13c-1.76,0-3.18,1.43-3.18,3.18s1.43,3.18,3.18,3.18h.13c1.76,0,3.18-1.43,3.18-3.18s-1.43-3.18-3.18-3.18Z"/>
      <path class="cls-6" d="m176.28,144.96h-.13c-1.76,0-3.18,1.43-3.18,3.18s1.43,3.18,3.18,3.18h.13c1.76,0,3.18-1.43,3.18-3.18s-1.43-3.18-3.18-3.18Z"/>
    </g>
  </g>
</svg>