<?xml version="1.0" encoding="utf-8"?>
<!-- Generator: Adobe Illustrator 27.6.1, SVG Export Plug-In . SVG Version: 6.00 Build 0)  -->
<svg version="1.1" id="Layer_1" xmlns="http://www.w3.org/2000/svg" xmlns:xlink="http://www.w3.org/1999/xlink" x="0px" y="0px"
	 viewBox="0 0 436.8 436.8" style="enable-background:new 0 0 436.8 436.8;" xml:space="preserve">
<style type="text/css">
	.st0{fill:#FEE383;}
	.st1{fill:#FDD130;}
</style>
<g>
	<path class="st0" d="M120.3,22L120.3,22c-1.2-1.7-3.9-0.3-3.2,1.6l0,0c10.4,31.6-25.9,57.9-52.7,38.3h0c-1.7-1.2-3.8,0.9-2.5,2.5
		l0,0c19.7,26.8-6.7,63.1-38.3,52.7h0c-2-0.6-3.3,2-1.6,3.2h0c27,19.5,13.1,62.1-20.1,62h0c-2.1,0-2.5,2.9-0.6,3.6h0
		c31.7,10.2,31.7,55,0,65.1h0c-2,0.6-1.5,3.6,0.6,3.6h0c33.3-0.1,47.1,42.5,20.1,62l0,0c-1.7,1.2-0.3,3.9,1.6,3.2h0
		c31.6-10.4,57.9,25.9,38.3,52.7l0,0c-1.2,1.7,0.9,3.8,2.5,2.5l0,0c26.8-19.7,63.1,6.7,52.7,38.3h0c-0.7,2,2,3.3,3.2,1.6h0
		c19.5-27,62.1-13.1,62,20.1l0,0c0,2.1,2.9,2.5,3.6,0.6v0c10.2-31.7,55-31.7,65.1,0l0,0c0.6,2,3.6,1.5,3.6-0.6l0,0
		c-0.1-33.3,42.5-47.1,62-20.1h0c1.2,1.7,3.9,0.3,3.2-1.6l0,0c-10.4-31.6,25.9-57.9,52.7-38.3h0c1.7,1.2,3.8-0.9,2.5-2.5l0,0
		c-19.7-26.8,6.7-63.1,38.3-52.7h0c2,0.7,3.3-2,1.6-3.2l0,0c-27-19.5-13.1-62.1,20.1-62h0c2.1,0,2.5-2.9,0.6-3.6h0
		c-31.7-10.2-31.7-55,0-65.1h0c2-0.6,1.5-3.6-0.6-3.6h0c-33.3,0.1-47.1-42.5-20.1-62h0c1.7-1.2,0.3-3.9-1.6-3.2h0
		c-31.6,10.4-57.9-25.9-38.3-52.7h0c1.2-1.7-0.9-3.8-2.5-2.5h0c-26.8,19.7-63.1-6.7-52.7-38.3v0c0.7-2-2-3.3-3.2-1.6l0,0
		c-19.5,27-62.1,13.1-62-20.1v0c0-2.1-2.9-2.5-3.6-0.6h0c-10.2,31.7-55,31.7-65.1,0l0,0c-0.6-2-3.6-1.5-3.6,0.6v0
		C182.4,35.1,139.8,48.9,120.3,22z"/>
	<circle class="st1" cx="218.4" cy="218.4" r="181.5"/>
	<ellipse class="st0" cx="218.4" cy="135.2" rx="130.8" ry="89.5"/>
</g>
</svg>
