<?xml version="1.0" encoding="UTF-8"?>
<svg id="Layer_2" data-name="Layer 2" xmlns="http://www.w3.org/2000/svg" xmlns:xlink="http://www.w3.org/1999/xlink" viewBox="0 0 160.4 66.27">
  <defs>
    <style>
      .cls-1 {
        fill: #fff;
      }

      .cls-2 {
        clip-path: url(#clippath);
        fill: none;
      }
    </style>
    <clipPath id="clippath">
      <path d="m80.2,4.83C51.35,4.83,24.12,3.09.05,0c-.02.54-.05,1.09-.05,1.63,0,35.7,35.91,64.64,80.2,64.64S160.4,37.33,160.4,1.63c0-.55-.03-1.09-.05-1.63-24.07,3.09-51.3,4.83-80.15,4.83Z"/>
    </clipPath>
  </defs>
  <g id="Anim">
    <g>
      <path d="m80.2,4.83C51.35,4.83,24.12,3.09.05,0c-.02.54-.05,1.09-.05,1.63,0,35.7,35.91,64.64,80.2,64.64S160.4,37.33,160.4,1.63c0-.55-.03-1.09-.05-1.63-24.07,3.09-51.3,4.83-80.15,4.83Z"/>
      <g class="cls-2">
        <g>
          <polygon class="cls-1" points="38.29 36.06 23.73 0 52.86 0 38.29 36.06"/>
          <polygon class="cls-1" points="66.23 36.06 51.67 0 80.79 0 66.23 36.06"/>
          <polygon class="cls-1" points="94.17 36.06 79.61 0 108.73 0 94.17 36.06"/>
          <polygon class="cls-1" points="122.11 36.06 107.55 0 136.67 0 122.11 36.06"/>
        </g>
      </g>
    </g>
  </g>
</svg>