<?xml version="1.0" encoding="UTF-8"?>
<svg id="Layer_2" data-name="Layer 2" xmlns="http://www.w3.org/2000/svg" viewBox="0 0 341.45 430.47">
  <defs>
    <style>
      .cls-1 {
        fill: #ffd1d1;
      }

      .cls-2 {
        fill: #ffd500;
      }

      .cls-3 {
        fill: #f73636;
      }

      .cls-4 {
        fill: #e03131;
      }

      .cls-5 {
        fill: #f90;
      }

      .cls-6 {
        fill: #fdfffa;
      }

      .cls-7 {
        fill: #ff8e8e;
      }
    </style>
  </defs>
  <g id="Landscape">
    <g>
      <rect class="cls-4" x="304.23" y="133" width="8.35" height="202.39"/>
      <rect class="cls-4" x="30.52" y="133" width="8.35" height="202.39"/>
      <g>
        <path class="cls-2" d="m18.29,132.49L4.23,63.95c-.38-1.87.09-3.8,1.3-5.28,1.21-1.48,3-2.33,4.91-2.33h80.21c1.62,0,3.09-.96,3.75-2.44,13.34-30.25,43.3-49.8,76.33-49.8s62.99,19.55,76.33,49.8c.65,1.48,2.12,2.44,3.75,2.44h80.21c1.91,0,3.7.85,4.91,2.33s1.68,3.41,1.3,5.28l-14.06,68.54H18.29Z"/>
        <path class="cls-5" d="m170.73,8.19c31.41,0,59.9,18.59,72.59,47.35,1.31,2.97,4.25,4.88,7.49,4.88h80.21c.93,0,1.49.52,1.74.83.25.31.65.96.46,1.87l-13.39,65.27H21.63L8.24,63.12c-.19-.91.21-1.56.46-1.87.25-.31.81-.83,1.74-.83h80.21c3.24,0,6.18-1.92,7.49-4.88,12.68-28.77,41.18-47.35,72.59-47.35m0-8.19c-35.77,0-66.52,21.48-80.08,52.24H10.44c-6.61,0-11.55,6.06-10.22,12.53l14.74,71.81h311.54l14.74-71.81c1.33-6.47-3.62-12.53-10.22-12.53h-80.21C237.24,21.48,206.5,0,170.73,0h0Z"/>
      </g>
      <path class="cls-5" d="m14.93,135.68h51.51v25.76c0,14.22-11.54,25.76-25.76,25.76h0c-14.22,0-25.76-11.54-25.76-25.76v-25.76h0Z"/>
      <path class="cls-2" d="m66.44,135.68h51.51v25.76c0,14.22-11.54,25.76-25.76,25.76h0c-14.22,0-25.76-11.54-25.76-25.76v-25.76h0Z"/>
      <path class="cls-5" d="m117.96,135.68h51.51v25.76c0,14.22-11.54,25.76-25.76,25.76h0c-14.22,0-25.76-11.54-25.76-25.76v-25.76h0Z"/>
      <path class="cls-2" d="m169.47,135.68h51.51v25.76c0,14.22-11.54,25.76-25.76,25.76h0c-14.22,0-25.76-11.54-25.76-25.76v-25.76h0Z"/>
      <path class="cls-5" d="m220.98,135.68h51.51v25.76c0,14.22-11.54,25.76-25.76,25.76h0c-14.22,0-25.76-11.54-25.76-25.76v-25.76h0Z"/>
      <path class="cls-2" d="m272.5,135.68h51.51v25.76c0,14.22-11.54,25.76-25.76,25.76h0c-14.22,0-25.76-11.54-25.76-25.76v-25.76h0Z"/>
      <rect class="cls-5" x="12.53" y="400.28" width="309.69" height="30.19"/>
      <rect class="cls-5" x="12.53" y="339.9" width="309.69" height="30.19"/>
      <rect class="cls-2" x="12.53" y="370.09" width="309.69" height="30.19"/>
      <rect class="cls-3" x="1.61" y="326.16" width="327.68" height="13.09" rx="6.54" ry="6.54"/>
      <g>
        <path class="cls-6" d="m272.59,248.28h-2.26c-5.12-6.08-16.63-10.33-30.04-10.33s-24.91,4.25-30.04,10.33h-2.95c-3.18,0-5.75,2.57-5.75,5.75v20.42h76.79v-20.42c0-3.18-2.57-5.75-5.75-5.75Z"/>
        <path class="cls-7" d="m284.48,318.18h-.28v-44.55c0-3.73-3.03-6.76-6.76-6.76h-75.32c-3.73,0-6.76,3.03-6.76,6.76v10.78c-7.85,1.53-13.77,8.43-13.77,16.73v17.04h-3.03c-1.56,0-2.82,1.26-2.82,2.82v6.82h111.56v-6.82c0-1.56-1.26-2.82-2.82-2.82Z"/>
        <rect class="cls-1" x="209.82" y="272.72" width="58.54" height="31.33" rx="4.03" ry="4.03"/>
      </g>
    </g>
  </g>
</svg>