<?xml version="1.0" encoding="UTF-8"?>
<svg id="Layer_2" data-name="Layer 2" xmlns="http://www.w3.org/2000/svg" viewBox="0 0 189.03 235.73">
  <defs>
    <style>
      .cls-1 {
        fill: #fff;
      }

      .cls-2 {
        fill: #ffd9f9;
      }

      .cls-3 {
        fill: #abd9ff;
      }

      .cls-4 {
        fill: #fca1df;
      }

      .cls-5 {
        fill: #fc0;
      }

      .cls-6 {
        fill: #fcfcfc;
      }
    </style>
  </defs>
  <g id="Anim">
    <g>
      <ellipse class="cls-1" cx="81.76" cy="103.44" rx="85.88" ry="43.83" transform="translate(-31.49 35.93) rotate(-20.88)"/>
      <path class="cls-2" d="m118.56,47.14c1.27-4.62,1.16-9.66-.68-14.47-4.59-12.03-23.52-15.98-30.09-13.48-6.57,2.5-13.23,2.37-17.94-6.63-8.16-14.72-29.63-18.98-49.59.83,10.44.42,12.1,7.01,12.89,13.17.78,6.11-2.93,14.48-14.9,19.15-10.63,4.15-17.18,15.37-14.84,26.54,1.4,6.71,5.39,11.93,10.56,15.13-10.01,6.02-14.3,18.86-9,30.01,4.79,10.09,16.5,15.43,27.25,12.42,7.68-2.15,13.25-7.76,15.7-14.55,1.06-2.94,3.25-5.33,6.17-6.44s6.09-.83,8.81.65c5.78,3.15,12.84,3.85,19.47,1.33,6.26-2.39,10.88-7.18,13.24-12.91,1.55-3.77,4.65-6.67,8.46-8.12,3.87-1.48,8.16-1.26,11.9.51,6.65,3.16,14.76,3.18,21.93-1.02,8.75-5.13,13.16-15.71,10.72-25.55-3.36-13.55-17.36-20.83-30.05-16.57Z"/>
      <path class="cls-5" d="m171.48,103.48c-1.42-6.44-7.07-11.16-13.67-11.19-2.42-.01-4.91.42-7.34,1.35-8.4,3.21-13.4,11.29-12.58,19.31-4.84-4.48-11.99-6.11-18.58-3.6-7.37,2.81-11.81,9.96-11.52,17.43-4.78-3.7-11.31-4.89-17.37-2.58-6.06,2.31-10.14,7.55-11.24,13.5-4.76-5.76-12.83-8.14-20.2-5.33-6.08,2.32-10.17,7.59-11.25,13.55-4.99-5.7-13.75-7.84-21.93-4.72-.07.03-.14.06-.22.08-9.27,3.64-13.07,14.75-8.32,23.5,9.98,18.4,33.16,61.98,37.57,69.62,2.33,4.04,33.05-1.17,69.76-14.77,36.71-13.61,65.41-31.83,64.43-36.4-1.45-6.78-12.99-59.22-17.52-79.74Z"/>
      <path class="cls-3" d="m105.22,54.74l5.44,3.34c.47.29,1.04.32,1.54.1l5.83-2.59c1.26-.56,2.61.57,2.29,1.91l-1.49,6.21c-.13.53.01,1.09.38,1.5l4.27,4.75c.92,1.03.27,2.66-1.11,2.77l-6.36.5c-.55.04-1.04.35-1.31.83l-3.2,5.53c-.69,1.19-2.45,1.08-2.98-.2l-2.44-5.9c-.21-.51-.65-.88-1.19-.99l-6.24-1.33c-1.35-.29-1.78-2-.73-2.89l4.85-4.14c.42-.36.63-.89.57-1.44l-.66-6.35c-.14-1.37,1.35-2.31,2.52-1.59Z"/>
      <path class="cls-6" d="m58.01,26.36l5.44,3.34c.47.29,1.04.32,1.54.1l5.83-2.59c1.26-.56,2.61.57,2.29,1.91l-1.49,6.21c-.13.53.01,1.09.38,1.5l4.27,4.75c.92,1.03.27,2.66-1.11,2.77l-6.36.5c-.55.04-1.04.35-1.31.83l-3.2,5.53c-.69,1.19-2.45,1.08-2.98-.2l-2.44-5.9c-.21-.51-.65-.88-1.19-.99l-6.24-1.33c-1.35-.29-1.78-2-.73-2.89l4.85-4.14c.42-.36.63-.89.57-1.44l-.66-6.35c-.14-1.37,1.35-2.31,2.52-1.59Z"/>
      <path class="cls-6" d="m79,74.27l2.25,5.97c.19.51.63.9,1.16,1.03l6.2,1.53c1.34.33,1.72,2.05.64,2.91l-4.99,3.98c-.43.34-.66.87-.62,1.42l.46,6.37c.1,1.38-1.42,2.27-2.57,1.51l-5.33-3.51c-.46-.3-1.03-.36-1.54-.15l-5.91,2.4c-1.28.52-2.6-.65-2.23-1.98l1.69-6.15c.15-.53.02-1.09-.33-1.51l-4.11-4.88c-.89-1.05-.18-2.67,1.2-2.73l6.38-.29c.55-.03,1.05-.32,1.34-.78l3.37-5.42c.73-1.17,2.48-1,2.97.29Z"/>
      <path class="cls-3" d="m41.92,51.59l2.25,5.97c.19.51.63.9,1.16,1.03l6.2,1.53c1.34.33,1.72,2.05.64,2.91l-4.99,3.98c-.43.34-.66.87-.62,1.42l.46,6.37c.1,1.38-1.42,2.27-2.57,1.51l-5.33-3.51c-.46-.3-1.03-.36-1.54-.15l-5.91,2.4c-1.28.52-2.6-.65-2.23-1.98l1.69-6.15c.15-.53.02-1.09-.33-1.51l-4.11-4.88c-.89-1.05-.18-2.67,1.2-2.73l6.38-.29c.55-.03,1.05-.32,1.34-.78l3.37-5.42c.73-1.17,2.48-1,2.97.29Z"/>
      <path class="cls-4" d="m36.74,90.89l.91,6.32c.08.54.42,1.01.91,1.25l5.72,2.83c1.24.61,1.23,2.38,0,2.98l-5.73,2.82c-.49.24-.83.71-.91,1.25l-.93,6.32c-.2,1.36-1.88,1.91-2.84.92l-4.45-4.58c-.38-.39-.93-.57-1.47-.48l-6.29,1.07c-1.36.23-2.39-1.2-1.75-2.42l2.98-5.65c.26-.48.26-1.06,0-1.55l-2.96-5.65c-.64-1.22.4-2.65,1.76-2.41l6.29,1.09c.54.09,1.09-.08,1.47-.48l4.46-4.56c.96-.99,2.64-.44,2.84.93Z"/>
    </g>
  </g>
</svg>