<?xml version="1.0" encoding="UTF-8"?>
<svg id="Layer_2" data-name="Layer 2" xmlns="http://www.w3.org/2000/svg" xmlns:xlink="http://www.w3.org/1999/xlink" viewBox="0 0 472.18 518.69">
  <defs>
    <style>
      .cls-1 {
        clip-path: url(#clippath-2);
      }

      .cls-1, .cls-2, .cls-3, .cls-4, .cls-5, .cls-6, .cls-7 {
        fill: none;
      }

      .cls-8 {
        fill: #fff;
      }

      .cls-2 {
        stroke-miterlimit: 10;
        stroke-width: 14.05px;
      }

      .cls-2, .cls-9 {
        stroke: #926440;
      }

      .cls-10 {
        fill: #b06831;
      }

      .cls-11 {
        fill: #ae6e45;
      }

      .cls-12 {
        fill: #abeafa;
      }

      .cls-13 {
        fill: #ff3d3d;
      }

      .cls-14 {
        fill: #b07f4a;
      }

      .cls-9 {
        fill: #f3bc2f;
        stroke-width: 12px;
      }

      .cls-9, .cls-3, .cls-5 {
        stroke-linecap: square;
        stroke-linejoin: round;
      }

      .cls-3 {
        stroke-width: 17.98px;
      }

      .cls-3, .cls-5 {
        stroke: #af6c38;
      }

      .cls-15 {
        fill: #d29b74;
      }

      .cls-16 {
        fill: #faabdb;
      }

      .cls-4 {
        clip-path: url(#clippath-3);
      }

      .cls-5 {
        stroke-width: 18.75px;
      }

      .cls-6 {
        clip-path: url(#clippath);
      }

      .cls-17 {
        fill: #cc8f64;
      }

      .cls-18 {
        fill: #9c6a00;
      }

      .cls-7 {
        clip-path: url(#clippath-1);
      }

      .cls-19 {
        fill: #00c213;
      }

      .cls-20 {
        fill: #fa3fa6;
      }

      .cls-21 {
        fill: #6bdb57;
      }
    </style>
    <clipPath id="clippath">
      <path class="cls-8" d="m120.08,207.64s-.09,0-.13.01c-7.13.66-13.45-4.58-14.11-11.71-.12-1.24-11.57-124.39-13.33-141.5-1.05-10.23-10.23-17.7-20.46-16.65-10.23,1.05-17.7,10.23-16.65,20.46l2.93,28.47c.73,7.12-4.45,13.49-11.57,14.22-7.12.73-13.49-4.45-14.22-11.57l-2.93-28.47c-2.51-24.45,15.33-46.39,39.79-48.91,24.45-2.52,46.39,15.33,48.91,39.79,1.77,17.23,12.88,136.67,13.36,141.75.66,7.09-4.52,13.37-11.58,14.1Z"/>
    </clipPath>
    <clipPath id="clippath-1">
      <path class="cls-18" d="m398.08,122.64l6.56,105.71-66.44.04,6.43-105.71c.08-1.4,1.24-2.49,2.64-2.49l48.17-.04c1.4,0,2.56,1.09,2.64,2.48Z"/>
    </clipPath>
    <clipPath id="clippath-2">
      <polygon class="cls-15" points="58.52 455.2 58.48 229.71 231.46 84.75 404.45 229.71 404.45 455.2 58.52 455.2"/>
    </clipPath>
    <clipPath id="clippath-3">
      <rect class="cls-18" x="57.23" y="424.75" width="346.99" height="79.43"/>
    </clipPath>
  </defs>
  <g id="Props">
    <g>
      <g>
        <path class="cls-8" d="m120.08,207.64s-.09,0-.13.01c-7.13.66-13.45-4.58-14.11-11.71-.12-1.24-11.57-124.39-13.33-141.5-1.05-10.23-10.23-17.7-20.46-16.65-10.23,1.05-17.7,10.23-16.65,20.46l2.93,28.47c.73,7.12-4.45,13.49-11.57,14.22-7.12.73-13.49-4.45-14.22-11.57l-2.93-28.47c-2.51-24.45,15.33-46.39,39.79-48.91,24.45-2.52,46.39,15.33,48.91,39.79,1.77,17.23,12.88,136.67,13.36,141.75.66,7.09-4.52,13.37-11.58,14.1Z"/>
        <g class="cls-6">
          <polygon class="cls-13" points="64.3 100.06 27.82 103.81 24.07 67.32 61.59 73.71 64.3 100.06"/>
          <polygon class="cls-13" points="91.07 104.89 126.42 90.07 123.03 57.14 87.59 71.04 91.07 104.89"/>
          <polygon class="cls-13" points="97.08 163.32 132.43 148.5 129.04 115.57 93.6 129.47 97.08 163.32"/>
          <polygon class="cls-13" points="104 230.61 139.35 215.8 135.96 182.87 100.52 196.77 104 230.61"/>
          <polygon class="cls-13" points="91.65 50.47 56.08 51.05 33.71 11.49 98.72 0 91.65 50.47"/>
        </g>
      </g>
      <g>
        <path class="cls-18" d="m398.08,122.64l6.56,105.71-66.44.04,6.43-105.71c.08-1.4,1.24-2.49,2.64-2.49l48.17-.04c1.4,0,2.56,1.09,2.64,2.48Z"/>
        <g class="cls-7">
          <g>
            <g>
              <polygon class="cls-14" points="345.4 185.12 360.05 182.31 377.86 201.38 371.96 228.62 339.47 219.38 345.4 185.12"/>
              <polygon class="cls-14" points="374.49 230.77 381.95 202.55 400.75 201.36 409.72 216.05 409.73 237.32 388.23 237.34 374.49 230.77"/>
              <polygon class="cls-14" points="344.23 175.35 361.04 179.06 363.54 164.63 351.44 159.52 341.9 172.09 344.23 175.35"/>
              <polygon class="cls-14" points="366.35 183.24 383.11 194.87 402.66 197.88 402.62 133.19 377.83 146.98 366.35 183.24"/>
              <polygon class="cls-14" points="339.26 165.57 352.4 153.47 339.94 144.86 331.1 146.73 332.51 162.55 339.26 165.57"/>
              <polygon class="cls-14" points="362.14 155.2 369.27 153.02 374.12 143.31 381.97 137.68 370.26 120.17 344.01 128.32 342.06 142.3 362.14 155.2"/>
              <polygon class="cls-14" points="385.25 134.9 392.05 131.18 394.15 121.32 398.81 125.63 407.18 122.94 402.28 102 377.48 99.69 374.1 116.22 385.25 134.9"/>
              <polygon class="cls-14" points="342.05 121.28 369.25 114.82 369.23 86.9 343.86 86.91 342.05 121.28"/>
            </g>
            <polygon class="cls-14" points="339.48 226.9 355.72 230.26 358.69 242.99 349.09 246.79 335.81 240.68 339.48 226.9"/>
            <polygon class="cls-14" points="360.59 231.38 369.32 233.62 366.38 245.25 362.08 242.98 360.59 231.38"/>
            <polygon class="cls-14" points="370.48 249.68 374.17 236.83 388.16 242.97 388.17 257.18 369.34 265.76 358.69 254.44 358.69 246.79 370.48 249.68"/>
            <polygon class="cls-14" points="352.77 249.24 345.61 252.61 335.81 245.27 332.76 261.19 332.77 273.13 355.74 274.65 366.4 269.74 355.73 255.36 352.77 249.24"/>
            <polygon class="cls-14" points="371.77 268.41 390.73 259.93 392.12 242.97 409.74 242.95 409.76 270.95 403.02 281.05 373.45 281.06 371.77 268.41"/>
            <polygon class="cls-14" points="353.79 279.29 369.35 273.11 369.35 281.07 353.79 279.29"/>
          </g>
        </g>
      </g>
      <g>
        <polygon class="cls-15" points="58.52 455.2 58.48 229.71 231.46 84.75 404.45 229.71 404.45 455.2 58.52 455.2"/>
        <g class="cls-1">
          <g>
            <rect class="cls-17" x="30.52" y="116.41" width="397.5" height="31.1"/>
            <rect class="cls-17" x="30.52" y="186.51" width="397.5" height="31.1"/>
            <rect class="cls-17" x="30.52" y="256.62" width="397.5" height="31.1"/>
            <rect class="cls-17" x="30.52" y="326.72" width="397.5" height="31.1"/>
            <rect class="cls-17" x="30.52" y="396.83" width="397.5" height="31.1"/>
          </g>
        </g>
      </g>
      <g>
        <rect class="cls-18" x="57.23" y="424.75" width="346.99" height="79.43"/>
        <g class="cls-4">
          <g>
            <g>
              <polygon class="cls-14" points="120.29 433.4 122.81 450.91 105.62 472.19 81.07 465.11 89.42 426.28 120.29 433.4"/>
              <polygon class="cls-14" points="79.13 468.13 104.56 477.08 105.62 499.56 92.38 510.27 73.21 510.27 73.21 484.56 79.13 468.13"/>
              <polygon class="cls-14" points="129.09 432.01 125.74 452.1 138.74 455.1 143.35 440.63 132.03 429.22 129.09 432.01"/>
              <polygon class="cls-14" points="121.96 458.44 111.48 478.47 108.75 501.84 167.05 501.84 154.64 472.19 121.96 458.44"/>
              <polygon class="cls-14" points="137.9 426.06 148.81 441.78 156.56 426.9 154.89 416.33 140.63 418 137.9 426.06"/>
              <polygon class="cls-14" points="147.23 453.43 149.2 461.96 157.95 467.76 163.01 477.15 178.79 463.17 171.46 431.77 158.87 429.43 147.23 453.43"/>
              <polygon class="cls-14" points="165.51 481.07 168.86 489.2 177.74 491.73 173.86 497.29 176.28 507.31 195.15 501.46 197.25 471.82 182.36 467.76 165.51 481.07"/>
              <polygon class="cls-14" points="177.81 429.43 183.62 461.96 208.78 461.96 208.78 431.63 177.81 429.43"/>
            </g>
            <polygon class="cls-14" points="82.64 426.28 79.61 445.69 68.14 449.24 64.71 437.76 70.23 421.89 82.64 426.28"/>
            <polygon class="cls-14" points="78.6 451.52 76.57 461.96 66.09 458.44 68.14 453.29 78.6 451.52"/>
            <polygon class="cls-14" points="62.09 463.33 73.68 467.76 68.14 484.47 55.33 484.47 47.61 461.96 57.82 449.24 64.71 449.24 62.09 463.33"/>
            <polygon class="cls-14" points="62.5 442.16 59.47 433.6 66.09 421.89 51.75 418.23 40.99 418.23 39.61 445.69 44.02 458.44 56.99 445.69 62.5 442.16"/>
            <polygon class="cls-14" points="45.22 464.85 52.85 487.53 68.14 489.2 68.14 510.27 42.91 510.27 33.82 502.21 33.82 466.85 45.22 464.85"/>
            <polygon class="cls-14" points="35.43 443.35 40.99 461.96 33.82 461.96 35.43 443.35"/>
          </g>
          <g>
            <g>
              <polygon class="cls-14" points="364.06 424.77 367.14 446.17 346.14 472.17 316.15 463.52 326.34 416.08 364.06 424.77"/>
              <polygon class="cls-14" points="313.78 467.21 344.85 478.14 346.14 505.6 329.96 518.69 306.55 518.69 306.55 487.28 313.78 467.21"/>
              <polygon class="cls-14" points="374.82 423.07 370.72 447.62 386.61 451.28 392.24 433.61 378.41 419.67 374.82 423.07"/>
              <polygon class="cls-14" points="366.11 455.36 353.3 479.84 349.97 508.39 421.2 508.39 406.03 472.17 366.11 455.36"/>
              <polygon class="cls-14" points="385.58 415.81 398.91 435.02 408.39 416.83 406.34 403.91 388.91 405.95 385.58 415.81"/>
              <polygon class="cls-14" points="396.98 449.24 399.38 459.66 410.08 466.75 416.26 478.23 435.54 461.14 426.59 422.78 411.2 419.92 396.98 449.24"/>
              <polygon class="cls-14" points="419.32 483.02 423.41 492.95 434.26 496.03 429.52 502.83 432.47 515.07 455.53 507.93 458.09 471.71 439.9 466.75 419.32 483.02"/>
              <polygon class="cls-14" points="434.34 419.92 441.44 459.66 472.18 459.66 472.18 422.61 434.34 419.92"/>
            </g>
            <polygon class="cls-14" points="318.07 416.08 314.36 439.79 300.35 444.12 296.16 430.1 302.9 410.71 318.07 416.08"/>
            <polygon class="cls-14" points="313.13 446.92 310.65 459.66 297.85 455.36 300.35 449.08 313.13 446.92"/>
            <polygon class="cls-14" points="292.96 461.34 307.11 466.75 300.35 487.17 284.7 487.17 275.26 459.66 287.73 444.12 296.16 444.12 292.96 461.34"/>
            <polygon class="cls-14" points="293.46 435.48 289.76 425.02 297.85 410.71 280.32 406.24 267.18 406.24 265.49 439.79 270.88 455.36 286.72 439.79 293.46 435.48"/>
            <polygon class="cls-14" points="272.35 463.2 281.67 490.91 300.35 492.95 300.35 518.69 269.52 518.69 258.41 508.84 258.41 465.65 272.35 463.2"/>
            <polygon class="cls-14" points="260.39 436.93 267.18 459.66 258.41 459.66 260.39 436.93"/>
          </g>
        </g>
      </g>
      <path class="cls-10" d="m250.07,317.89h0c27.26,0,49.4,22.13,49.4,49.4v135.95h-98.79v-135.95c0-27.26,22.13-49.4,49.4-49.4Z"/>
      <path class="cls-2" d="m200.68,503.24v-135.95c0-27.28,22.12-49.4,49.4-49.4h0c27.28,0,49.4,22.12,49.4,49.4v135.95"/>
      <circle class="cls-17" cx="230.97" cy="404.33" r="15.14"/>
      <line class="cls-5" x1="118.94" y1="186.27" x2="356.74" y2="186.27"/>
      <polyline class="cls-3" points="278.69 114.92 231.46 176.47 184.24 114.92"/>
      <path class="cls-16" d="m444.82,276.8L234.24,100.33c-1.69-1.42-3.86-1.42-5.56,0L17.82,277.04c-2.14,1.79-4.99.99-6.36-1.8L.73,253.5c-1.37-2.79-.76-6.5,1.38-8.29L226.74,56.97c2.88-2.41,6.58-2.41,9.46,0l224.33,187.99c2.3,1.93,2.96,5.92,1.49,8.91l-10.35,20.99c-1.48,3-4.54,3.86-6.84,1.94Z"/>
      <circle class="cls-9" cx="143.96" cy="285.6" r="50.13"/>
      <path class="cls-12" d="m321.1,351.14l-14.36-26.44c-.59-1.1-.59-2.56.01-3.65l14.36-26.02c.96-1.74,2.95-1.74,3.92,0l14.36,26.02c.6,1.09.61,2.56.01,3.65l-14.36,26.44c-.96,1.77-2.98,1.77-3.94,0Z"/>
      <path class="cls-19" d="m365.25,408.31l-14.36-26.44c-.59-1.1-.59-2.56.01-3.65l14.36-26.02c.96-1.74,2.95-1.74,3.92,0l14.36,26.02c.6,1.09.61,2.56.01,3.65l-14.36,26.44c-.96,1.77-2.98,1.77-3.94,0Z"/>
      <path class="cls-20" d="m97.16,402.92l-14.36-26.44c-.59-1.1-.59-2.56.01-3.65l14.36-26.02c.96-1.74,2.95-1.74,3.92,0l14.36,26.02c.6,1.09.61,2.56.01,3.65l-14.36,26.44c-.96,1.77-2.98,1.77-3.94,0Z"/>
      <path class="cls-16" d="m300.15,261.71l-14.36-26.44c-.59-1.1-.59-2.56.01-3.65l14.36-26.02c.96-1.74,2.95-1.74,3.92,0l14.36,26.02c.6,1.09.61,2.56.01,3.65l-14.36,26.44c-.96,1.77-2.98,1.77-3.94,0Z"/>
      <circle class="cls-11" cx="209.71" cy="231.18" r="12"/>
      <circle class="cls-11" cx="165.81" cy="390.47" r="12"/>
      <circle class="cls-11" cx="346.73" cy="253.31" r="15"/>
      <circle class="cls-11" cx="190.9" cy="215.77" r="7.8"/>
      <circle class="cls-11" cx="145.93" cy="370.64" r="7.8"/>
      <circle class="cls-11" cx="341.57" cy="283.05" r="7.5"/>
      <circle class="cls-21" cx="253.96" cy="218.15" r="12"/>
      <path class="cls-16" d="m.73,253.5s7.78,51.3,9.62,60.89c5.52-15.58,14.71-55.14,14.71-55.14l9.2,43.15,10.5-50.21s2.85,31.31,30.2,8.39c27.35-22.91,10.8-50.49,26.43-63.67,15.63-13.19,30.35,20.38,56.1,1.2,25.75-19.18,12.87-57.54,19.31-69.53,6.44-11.99,13.79,58.74,13.79,58.74l11.04-74.32s15.56,20.21,32.61-12.67c6.94,25.86,29.01,40.24,47.4,30.65.92,21.58,12.87,55.14,12.87,55.14l9.2-40.76,11.04,62.33,16.55-37.16s0,51.55,44.14,41.96c-1.84,16.78,8.28,56.34,11.04,53.94,2.76-2.4,17.97-32.13,17.97-32.13l19.73,57.3,10.12-39.56,2.76,32.37,10.12-27.57L231.46,84.75.73,253.5Z"/>
      <line class="cls-9" x1="145.23" y1="237.55" x2="145.23" y2="334.31"/>
      <line class="cls-9" x1="193.61" y1="285.93" x2="96.85" y2="285.93"/>
    </g>
  </g>
</svg>