<?xml version="1.0" encoding="UTF-8"?>
<svg id="Layer_2" data-name="Layer 2" xmlns="http://www.w3.org/2000/svg" xmlns:xlink="http://www.w3.org/1999/xlink" viewBox="0 0 225.36 268.03">
  <defs>
    <style>
      .cls-1 {
        opacity: .18;
      }

      .cls-2 {
        fill: #fff;
      }

      .cls-3 {
        fill: #ffae00;
      }

      .cls-4 {
        fill: #ff9000;
      }

      .cls-5 {
        fill: #fff2f7;
      }

      .cls-6 {
        clip-path: url(#clippath);
        fill: none;
      }

      .cls-7 {
        fill: #ffefd9;
      }

      .cls-8 {
        fill: #ff6a00;
      }
    </style>
    <clipPath id="clippath">
      <circle class="cls-8" cx="85.74" cy="129.42" r="85.72"/>
    </clipPath>
  </defs>
  <g id="Props">
    <g>
      <ellipse class="cls-1" cx="31.04" cy="264.06" rx="22.5" ry="3.97"/>
      <g>
        <path class="cls-5" d="m86.24,143.35c0,1.05-.19,2.11-.6,3.14l-2.2,5.53-4.47,11.24-19.92,50.08-19.49,49h-18.28s21.89-55.05,21.89-55.05l21.68-54.51,5-12.58c.06-.17.14-.33.21-.49,1.89-4.03,6.63-5.94,10.82-4.27,3.33,1.32,5.35,4.52,5.35,7.9Z"/>
        <g>
          <circle class="cls-8" cx="85.74" cy="129.42" r="85.72"/>
          <g class="cls-6">
            <circle class="cls-4" cx="94.26" cy="112.76" r="90.13"/>
            <path class="cls-3" d="m72.02,0l153.33,87.4s-19.9,28.48-64.72,99.53c6.94-12.77,10.88-27.4,10.88-42.96,0-49.78-40.35-90.13-90.13-90.13-30.07,0-56.71,14.73-73.08,37.37C34.57,43.7,72.02,0,72.02,0Z"/>
          </g>
        </g>
        <path class="cls-7" d="m42.19,191.03c-22.12-18-32.51-48.86-24.35-77.4,4.09-15.69,14.17-29.53,28.08-37.93,19.99-12.5,47.51-12.66,67.17.71,17.23,11.62,26.18,33.89,21.75,54.19-4,21.56-23.06,37.42-45.14,36.27-12.15-.52-24.31-6.52-30.78-17.04-8.29-12.84-7.18-31.55,4.25-42.13,6.69-6.27,16.56-8.89,25.44-6.71,5.9,1.36,11.43,4.9,14.64,10.07,4.88,7.63,4.63,18.1-1.21,25-3.81,4.41-9.93,6.68-15.62,5.65-5.68-.91-1.76-3.06.56-2.98,5.98.19,11.87-3.68,13.37-10.02,1.95-7.09-1.54-15.05-8.1-18.19-5.43-2.62-12.17-2.46-17.45.41-7.68,3.93-11.13,12.68-10.34,20.93,2.68,24.14,33.3,28.85,48.44,12.85,4.46-4.56,7.18-10.63,8.41-16.86,3.68-17.25-5.71-36.04-21.69-43.49-25.9-12.33-57.62-.44-69.5,25.61-12.64,27.13-5.52,58.35,14.42,78.71.06.06.12.12.18.18,1.46,1.46-.55,3.73-2.18,2.46-.11-.09-.23-.18-.34-.27Z"/>
        <path class="cls-2" d="m36.91,126.94c1.79,21.64,13.11,42.34,32.3,52.76,18.07,10.14,41.61,7.62,57.3-5.94,24.85-20.68,28.64-59.84,10.47-86.08-6.06-8.91-14.54-16.3-24.65-20.99-.83-.37-1.19-1.35-.81-2.18.34-.73,1.16-1.1,1.91-.89,17.29,4.73,31.89,18.49,39.18,34.91,16.7,36.26.2,83.11-38.65,96.35-16.53,5.58-35.41,3.45-50.2-5.81-20.91-12.66-33-38.13-30.85-62.13.25-2.44,3.77-2.42,4,0h0Z"/>
      </g>
    </g>
  </g>
</svg>