<?xml version="1.0" encoding="UTF-8"?>
<svg id="Layer_2" data-name="Layer 2" xmlns="http://www.w3.org/2000/svg" xmlns:xlink="http://www.w3.org/1999/xlink" viewBox="0 0 278.63 328.59">
  <defs>
    <style>
      .cls-1 {
        fill: #ffd9d9;
      }

      .cls-2 {
        opacity: .18;
      }

      .cls-3 {
        fill: #e57dff;
      }

      .cls-4 {
        fill: #ffd6d6;
      }

      .cls-5 {
        fill: #fff2f7;
      }

      .cls-6 {
        fill: #e238ff;
      }

      .cls-7 {
        fill: #fa94ff;
      }

      .cls-8 {
        clip-path: url(#clippath);
        fill: none;
      }
    </style>
    <clipPath id="clippath">
      <circle class="cls-6" cx="172.62" cy="160.01" r="105.98"/>
    </clipPath>
  </defs>
  <g id="Props">
    <g>
      <ellipse class="cls-2" cx="239.32" cy="321.75" rx="35.44" ry="6.84"/>
      <g>
        <path class="cls-5" d="m172,177.24c0,1.29.24,2.61.74,3.88l2.72,6.84,5.53,13.9,24.62,61.92,21.46,53.97c1.59,4,5.46,6.62,9.76,6.62h0c7.42,0,12.5-7.49,9.76-14.38l-21.35-53.68-26.8-67.39-6.18-15.55c-.08-.21-.17-.41-.26-.6-2.34-4.98-8.19-7.34-13.38-5.28-4.12,1.64-6.62,5.59-6.62,9.76Z"/>
        <g>
          <circle class="cls-6" cx="172.62" cy="160.01" r="105.98"/>
          <g class="cls-8">
            <circle class="cls-3" cx="162.08" cy="139.41" r="111.43"/>
            <path class="cls-7" d="m189.58,0L0,108.05s24.6,35.21,80.02,123.06c-8.58-15.79-13.45-33.88-13.45-53.11,0-61.54,49.89-111.43,111.43-111.43,37.18,0,70.11,18.21,90.35,46.2C235.89,54.03,189.58,0,189.58,0Z"/>
          </g>
        </g>
        <path class="cls-1" d="m226.46,236.19c27.35-22.25,40.19-60.41,30.11-95.7-5.06-19.4-17.52-36.52-34.72-46.9-24.71-15.45-58.74-15.65-83.04.87-21.31,14.37-32.37,41.9-26.89,67.01,4.95,26.66,28.51,46.26,55.81,44.84,15.02-.65,30.06-8.07,38.05-21.07,10.25-15.88,8.88-39.01-5.25-52.09-8.27-7.75-20.47-10.99-31.45-8.3-7.3,1.68-14.13,6.06-18.11,12.45-6.04,9.43-5.72,22.38,1.5,30.91,4.71,5.46,12.27,8.26,19.31,6.99,7.02-1.12,2.18-3.78-.69-3.69-7.4.24-14.68-4.55-16.53-12.39-2.4-8.77,1.9-18.6,10.01-22.49,6.71-3.25,15.04-3.04,21.57.51,9.5,4.86,13.76,15.68,12.79,25.88-3.32,29.85-41.17,35.67-59.88,15.89-5.52-5.63-8.88-13.15-10.4-20.85-4.56-21.32,7.06-44.56,26.81-53.77,32.02-15.24,71.24-.54,85.93,31.66,15.63,33.55,6.83,72.14-17.83,97.31-.07.07-.15.15-.22.22-1.81,1.81.68,4.62,2.7,3.04.14-.11.28-.22.42-.33Z"/>
        <path class="cls-4" d="m237.94,156.95c3.86,42.21-27.48,84.56-71.18,87.58-19.59,1.59-39.52-5.22-54.39-17.99-33.04-27.71-39.78-78.52-17.13-114.68,9.86-15.65,25.44-28.39,43.16-33.19,1.08-.29,2.19.34,2.48,1.41.27.97-.23,1.97-1.12,2.37-12.51,5.8-22.99,14.93-30.48,25.95-14.86,21.7-18.12,50.73-8.84,75.28,12.44,34.17,48.67,55.37,83.92,42.43,28.38-10.34,46.35-39.33,48.64-69.17.27-2.99,4.66-3.02,4.95,0h0Z"/>
      </g>
    </g>
  </g>
</svg>