<?xml version="1.0" encoding="UTF-8"?>
<svg id="Layer_2" data-name="Layer 2" xmlns="http://www.w3.org/2000/svg" xmlns:xlink="http://www.w3.org/1999/xlink" viewBox="0 0 349.06 411.65">
  <defs>
    <style>
      .cls-1 {
        opacity: .18;
      }

      .cls-2 {
        fill: #52ffd3;
      }

      .cls-3 {
        fill: #fff2f7;
      }

      .cls-4 {
        fill: #91ffe4;
      }

      .cls-5 {
        clip-path: url(#clippath);
        fill: none;
      }

      .cls-6 {
        fill: #29c79f;
      }

      .cls-7 {
        fill: #2fe3b5;
      }
    </style>
    <clipPath id="clippath">
      <circle class="cls-6" cx="132.81" cy="200.46" r="132.77"/>
    </clipPath>
  </defs>
  <g id="Props">
    <g>
      <ellipse class="cls-1" cx="49.24" cy="403.09" rx="44.4" ry="8.57"/>
      <g>
        <path class="cls-3" d="m133.58,222.04c0,1.62-.3,3.27-.93,4.86l-3.41,8.57-6.92,17.41-30.85,77.57-26.89,67.61c-1.99,5.01-6.84,8.29-12.22,8.29h0c-9.3,0-15.66-9.38-12.22-18.02l26.74-67.24,33.58-84.43,7.75-19.49c.1-.26.21-.51.33-.75,2.93-6.24,10.26-9.2,16.76-6.61,5.16,2.05,8.29,7.01,8.29,12.23Z"/>
        <g>
          <circle class="cls-6" cx="132.81" cy="200.46" r="132.77"/>
          <g class="cls-5">
            <circle class="cls-7" cx="146" cy="174.65" r="139.6"/>
            <path class="cls-2" d="m111.56,0l237.5,135.37s-30.82,44.12-100.25,154.17c10.75-19.78,16.85-42.45,16.85-66.54,0-77.1-62.5-139.6-139.6-139.6-46.58,0-87.84,22.82-113.19,57.88C53.54,67.68,111.56,0,111.56,0Z"/>
          </g>
        </g>
        <path class="cls-4" d="m65.36,295.89c-34.26-27.87-50.35-75.67-37.72-119.89,6.33-24.3,21.95-45.75,43.5-58.75,30.96-19.35,73.59-19.61,104.04,1.09,26.69,18,40.55,52.49,33.68,83.94-6.2,33.4-35.72,57.96-69.92,56.18-18.82-.81-37.66-10.11-47.67-26.4-12.84-19.89-11.12-48.87,6.58-65.26,10.36-9.71,25.65-13.77,39.4-10.4,9.14,2.1,17.7,7.59,22.68,15.6,7.57,11.81,7.16,28.04-1.88,38.72-5.91,6.84-15.38,10.35-24.19,8.76-8.8-1.4-2.73-4.73.87-4.62,9.27.3,18.39-5.7,20.7-15.52,3.01-10.98-2.38-23.31-12.55-28.18-8.4-4.07-18.85-3.81-27.03.63-11.9,6.09-17.24,19.64-16.02,32.42,4.16,37.4,51.57,44.68,75.02,19.91,6.91-7.06,11.13-16.47,13.03-26.12,5.71-26.72-8.84-55.83-33.59-67.36-40.11-19.1-89.24-.67-107.65,39.66-19.58,42.03-8.55,90.38,22.33,121.91.09.09.18.18.27.28,2.27,2.27-.85,5.78-3.38,3.8-.18-.14-.35-.28-.52-.42Z"/>
        <path class="cls-4" d="m57.17,196.62c2.49,32.9,20.69,66.03,50.02,81.72,28.23,15.72,64.22,11.85,88.75-9.21,23.49-19.51,35.4-50.84,33.67-81.05-1.87-36.05-22.51-69.47-55.64-84.79-1.35-.57-1.97-2.19-1.28-3.5.57-1.11,1.85-1.61,2.99-1.25,2.17.68,4.36,1.38,6.54,2.11,4.25,1.57,8.58,3.56,12.54,5.81,14.26,7.89,26.23,19.91,34.99,33.67,17.6,28.33,21.49,64.56,10.63,96.09-10.56,32.09-37.59,59.64-70.97,67.65-45.84,11.55-91.33-14.01-109.82-56.37-5.13-11.71-8.16-24.38-8.82-37.15-.24-4.51-.14-9.25.19-13.74.32-3.91,5.89-3.86,6.2,0h0Z"/>
      </g>
    </g>
  </g>
</svg>