<?xml version="1.0" encoding="UTF-8"?>
<svg id="Layer_2" data-name="Layer 2" xmlns="http://www.w3.org/2000/svg" xmlns:xlink="http://www.w3.org/1999/xlink" viewBox="0 0 279.77 329.08">
  <defs>
    <style>
      .cls-1 {
        opacity: .18;
      }

      .cls-2 {
        fill: #fff;
      }

      .cls-3 {
        fill: #fff2f7;
      }

      .cls-4 {
        fill: #fd0;
      }

      .cls-5 {
        fill: #fff5d9;
      }

      .cls-6 {
        clip-path: url(#clippath);
        fill: none;
      }

      .cls-7 {
        fill: #fc0;
      }

      .cls-8 {
        fill: #ffedad;
      }
    </style>
    <clipPath id="clippath">
      <circle class="cls-7" cx="106.45" cy="160.67" r="106.42"/>
    </clipPath>
  </defs>
  <g id="Props">
    <g>
      <ellipse class="cls-1" cx="40.95" cy="324.15" rx="27.93" ry="4.93"/>
      <g>
        <path class="cls-3" d="m107.07,177.97c0,1.3-.24,2.62-.75,3.89l-2.73,6.87-5.55,13.95-24.73,62.17-21.55,54.19c-1.6,4.01-5.48,6.65-9.8,6.65h0c-7.45,0-12.55-7.52-9.8-14.44l21.43-53.9,26.91-67.67,6.21-15.62c.08-.21.17-.41.27-.6,2.35-5,8.22-7.37,13.43-5.3,4.14,1.64,6.65,5.61,6.65,9.8Z"/>
        <g>
          <circle class="cls-7" cx="106.45" cy="160.67" r="106.42"/>
          <g class="cls-6">
            <circle class="cls-4" cx="117.02" cy="139.98" r="111.89"/>
            <path class="cls-8" d="m89.41,0l190.36,108.5s-24.7,35.36-80.35,123.57c8.61-15.85,13.5-34.02,13.5-53.33,0-61.8-50.09-111.89-111.89-111.89-37.34,0-70.4,18.29-90.73,46.39C42.91,54.25,89.41,0,89.41,0Z"/>
          </g>
        </g>
        <path class="cls-5" d="m52.38,237.16c-27.46-22.34-40.36-60.65-30.23-96.1,5.08-19.47,17.59-36.67,34.87-47.09,24.82-15.51,58.98-15.72,83.39.88,21.4,14.43,32.5,42.07,27,67.28-4.97,26.77-28.63,46.45-56.04,45.03-15.08-.65-30.18-8.1-38.21-21.16-10.29-15.94-8.92-39.17,5.28-52.31,8.3-7.78,20.56-11.04,31.58-8.33,7.33,1.69,14.19,6.08,18.18,12.5,6.06,9.47,5.74,22.48-1.51,31.04-4.73,5.48-12.33,8.29-19.39,7.02-7.05-1.12-2.19-3.79.69-3.7,7.43.24,14.74-4.57,16.59-12.44,2.41-8.8-1.91-18.68-10.06-22.58-6.73-3.26-15.11-3.06-21.66.51-9.54,4.88-13.82,15.74-12.84,25.99,3.33,29.98,41.34,35.81,60.13,15.95,5.54-5.66,8.92-13.2,10.45-20.94,4.57-21.41-7.08-44.75-26.92-53.99-32.15-15.31-71.53-.54-86.28,31.79-15.69,33.68-6.86,72.44,17.9,97.71.07.07.15.15.22.22,1.82,1.82-.68,4.64-2.71,3.05-.14-.11-.28-.22-.42-.33Z"/>
        <path class="cls-2" d="m45.82,157.59c2.75,39.95,34.99,77.39,76.9,72.9,25.72-2.45,47.52-22.14,56.2-46.05,9.31-24.65,6.04-53.8-8.88-75.59-7.52-11.07-18.06-20.24-30.63-26.07-2.2-1.01-1-4.44,1.39-3.79,14.19,3.88,27.02,12.72,36.68,24.21,2.11,2.45,4.86,6.37,6.66,9.12,25.03,40.01,14.09,96.83-26.7,122.07-20,12.69-46.1,14.95-67.92,5.68-32.09-13.17-51.75-48.72-48.68-82.47.32-3.04,4.68-3,4.97,0h0Z"/>
      </g>
    </g>
  </g>
</svg>