<?xml version="1.0" encoding="UTF-8"?>
<svg id="Layer_2" data-name="Layer 2" xmlns="http://www.w3.org/2000/svg" xmlns:xlink="http://www.w3.org/1999/xlink" viewBox="0 0 534.71 153.93">
  <defs>
    <style>
      .cls-1 {
        fill: #fff;
      }

      .cls-2 {
        fill: #d1d1d1;
      }

      .cls-3 {
        fill: none;
        stroke: #fff;
        stroke-miterlimit: 10;
        stroke-width: 2.08px;
      }

      .cls-4 {
        clip-path: url(#clippath-2);
      }

      .cls-5 {
        fill: #d6d6d6;
      }

      .cls-6 {
        clip-path: url(#clippath-1);
      }

      .cls-7 {
        clip-path: url(#clippath);
      }

      .cls-8 {
        fill: #b5fff5;
      }

      .cls-9 {
        fill: #5dcfbf;
      }

      .cls-10 {
        fill: #b5b5b5;
      }

      .cls-11 {
        fill: #6cf0de;
      }
    </style>
    <clipPath id="clippath">
      <rect class="cls-11" x="109.36" y="49.23" width="345.93" height="45.75"/>
    </clipPath>
    <clipPath id="clippath-1">
      <path class="cls-1" d="M135.97,145.24c0,.56,.34,1.06,.86,1.25,12.76,4.76,63.72,7.63,63.72,3.27v-20.56c0-4.36-50.95-1.49-63.72,3.27-.52,.19-.86,.7-.86,1.25v11.52Z"/>
    </clipPath>
    <clipPath id="clippath-2">
      <path class="cls-1" d="M368.35,145.24c0,.56,.34,1.06,.86,1.25,12.76,4.76,63.72,7.63,63.72,3.27v-20.56c0-4.36-50.95-1.49-63.72,3.27-.52,.19-.86,.7-.86,1.25v11.52Z"/>
    </clipPath>
  </defs>
  <g id="Layer_8" data-name="Layer 8">
    <g>
      <path class="cls-1" d="M36.51,40.41H458.7c41.95,0,76.01,34.06,76.01,76.01h0c0,8.93-7.25,16.17-16.17,16.17H72.54c-19.89,0-36.04-16.15-36.04-36.04V40.41h0Z"/>
      <polyline class="cls-3" points="214.51 25.54 196.96 43.09 179.4 25.54"/>
      <polyline class="cls-3" points="249.11 25.54 231.56 43.09 214 25.54"/>
      <g>
        <g>
          <rect class="cls-11" x="109.36" y="49.23" width="345.93" height="45.75"/>
          <g class="cls-7">
            <rect class="cls-9" x="110.13" y="86.51" width="357.12" height="28.55"/>
            <g>
              <g>
                <polygon class="cls-8" points="156.36 119.8 134.54 119.8 211.66 49.23 233.49 49.23 156.36 119.8"/>
                <polygon class="cls-8" points="127.56 119.8 116.09 119.8 193.21 49.23 204.68 49.23 127.56 119.8"/>
              </g>
              <g>
                <polygon class="cls-8" points="269.88 119.8 248.06 119.8 325.18 49.23 347.01 49.23 269.88 119.8"/>
                <polygon class="cls-8" points="241.08 119.8 229.6 119.8 306.73 49.23 318.2 49.23 241.08 119.8"/>
              </g>
              <polygon class="cls-8" points="372.53 119.8 361.06 119.8 438.18 49.23 449.65 49.23 372.53 119.8"/>
            </g>
          </g>
        </g>
        <rect class="cls-2" x="109.36" y="115.06" width="357.89" height="17.54"/>
      </g>
      <rect class="cls-10" x="116.17" y="120.61" width="345.49" height="6.44"/>
      <g>
        <path class="cls-1" d="M135.97,145.24c0,.56,.34,1.06,.86,1.25,12.76,4.76,63.72,7.63,63.72,3.27v-20.56c0-4.36-50.95-1.49-63.72,3.27-.52,.19-.86,.7-.86,1.25v11.52Z"/>
        <g class="cls-6">
          <rect class="cls-5" x="131.48" y="143.18" width="71.08" height="10.75"/>
        </g>
      </g>
      <g>
        <path class="cls-1" d="M368.35,145.24c0,.56,.34,1.06,.86,1.25,12.76,4.76,63.72,7.63,63.72,3.27v-20.56c0-4.36-50.95-1.49-63.72,3.27-.52,.19-.86,.7-.86,1.25v11.52Z"/>
        <g class="cls-4">
          <rect class="cls-5" x="363.86" y="143.18" width="71.08" height="10.75"/>
        </g>
      </g>
      <path class="cls-1" d="M108.09,99.53l-68.86,10.79L0,0H26.65c7.3,0,14.15,3.56,18.34,9.54l63.1,89.99Z"/>
      <path class="cls-11" d="M464.8,94.99h43.4c0-23.31-18.93-42.54-43.4-45.38v45.38Z"/>
    </g>
  </g>
</svg>