<?xml version="1.0" encoding="utf-8"?>
<!-- Generator: Adobe Illustrator 27.6.1, SVG Export Plug-In . SVG Version: 6.00 Build 0)  -->
<svg version="1.1" id="Layer_1" xmlns="http://www.w3.org/2000/svg" xmlns:xlink="http://www.w3.org/1999/xlink" x="0px" y="0px"
	 viewBox="0 0 240.8 240.8" style="enable-background:new 0 0 240.8 240.8;" xml:space="preserve">
<style type="text/css">
	.st0{fill:#DE7E4C;}
	.st1{fill:#7C2711;}
</style>
<g>
	<path class="st0" d="M240.8,120.4c0,66.5-53.9,120.4-120.4,120.4C53.9,240.8,0,186.9,0,120.4c0-15.9,3.1-31,8.6-44.9
		C16.3,56.4,28.8,39.7,44.5,27C65.2,10.1,91.6,0,120.4,0c29.2,0,56.1,10.4,76.9,27.8c9.2,7.6,17.2,16.6,23.7,26.5
		C233.5,73.3,240.8,96,240.8,120.4z"/>
	<path class="st1" d="M55.8,50.5c0,16.7-13.5,30.2-30.2,30.2c-6.3,0-12.1-1.9-16.9-5.2C16.3,56.4,28.8,39.7,44.5,27
		C51.4,32.5,55.8,41,55.8,50.5z"/>
	<path class="st1" d="M221.1,54.3c-2.7,8.2-10.4,14.2-19.6,14.2c-11.4,0-20.6-9.2-20.6-20.6c0-9.9,7.1-18.2,16.4-20.2
		C206.5,35.4,214.5,44.3,221.1,54.3z"/>
	<circle class="st1" cx="121.1" cy="44" r="20.6"/>
	<circle class="st1" cx="120.4" cy="198.7" r="20.6"/>
	<circle class="st1" cx="194.7" cy="141.5" r="20.6"/>
	<circle class="st1" cx="46.1" cy="141.5" r="20.6"/>
</g>
</svg>
