<?xml version="1.0" encoding="UTF-8"?>
<svg id="Layer_2" data-name="Layer 2" xmlns="http://www.w3.org/2000/svg" viewBox="0 0 231.55 127.81">
  <defs>
    <style>
      .cls-1 {
        fill: #fa4141;
      }

      .cls-2 {
        fill: #fa2121;
      }

      .cls-3 {
        fill: #137bcb;
      }

      .cls-4 {
        fill: #ff4d00;
      }
    </style>
  </defs>
  <g id="Anim">
    <g>
      <path class="cls-3" d="m225.26,80.33h0c-3.59,4.56-4.02,10.85-1.08,15.85h0c7.23,12.33-6.38,26.39-18.91,19.51-17.11-9.4-32.54-26.15-33.07-52.92-.53-26.77,14.22-44.12,30.94-54.19,12.24-7.37,26.4,6.14,19.67,18.75h0c-2.73,5.12-2.05,11.38,1.71,15.8h0c9.08,10.64,9.39,26.21.74,37.2Z"/>
      <path class="cls-1" d="m225.26,80.33h0c-3.59,4.56-4.02,10.85-1.08,15.85h0c7.23,12.33-6.38,26.39-18.91,19.51-17.11-9.4-32.54-26.15-33.07-52.92-.53-26.77,14.22-44.12,30.94-54.19,12.24-7.37,26.4,6.14,19.67,18.75h0c-2.73,5.12-2.05,11.38,1.71,15.8h0c9.08,10.64,9.39,26.21.74,37.2Z"/>
      <g>
        <path class="cls-4" d="m172.27,66.17c-1.17.02-2.32-.56-2.97-1.63-.97-1.6-.46-3.69,1.14-4.66l31.59-19.14c1.6-.97,3.69-.46,4.66,1.14.97,1.6.46,3.69-1.14,4.66l-31.59,19.14c-.53.32-1.11.48-1.69.49Z"/>
        <path class="cls-4" d="m209.18,65.44l-36.91.73c-1.87.04-3.42-1.45-3.46-3.32-.04-1.87,1.45-3.42,3.32-3.46l36.91-.73c1.87-.04,3.42,1.45,3.46,3.32.04,1.87-1.45,3.42-3.32,3.46Z"/>
        <path class="cls-4" d="m204.6,84.04c-.58.01-1.16-.12-1.71-.42l-32.33-17.87c-1.64-.91-2.23-2.97-1.33-4.61.91-1.64,2.97-2.24,4.61-1.33l32.33,17.87c1.64.91,2.23,2.97,1.33,4.61-.61,1.1-1.73,1.73-2.9,1.75Z"/>
      </g>
      <path class="cls-3" d="m7.03,84.67h0c3.77,4.41,4.45,10.68,1.71,15.8h0c-6.74,12.6,7.42,26.12,19.67,18.75,16.72-10.07,31.48-27.42,30.94-54.19-.53-26.77-15.97-43.52-33.07-52.92C13.75,5.23.14,19.29,7.37,31.62h0c2.94,5,2.51,11.29-1.08,15.85h0c-8.65,10.99-8.34,26.56.74,37.2Z"/>
      <path class="cls-1" d="m7.03,84.67h0c3.77,4.41,4.45,10.68,1.71,15.8h0c-6.74,12.6,7.42,26.12,19.67,18.75,16.72-10.07,31.48-27.42,30.94-54.19-.53-26.77-15.97-43.52-33.07-52.92C13.75,5.23.14,19.29,7.37,31.62h0c2.94,5,2.51,11.29-1.08,15.85h0c-8.65,10.99-8.34,26.56.74,37.2Z"/>
      <g>
        <path class="cls-4" d="m59.41,68.42c-.58.01-1.16-.12-1.71-.42l-32.33-17.87c-1.64-.91-2.23-2.97-1.33-4.61.91-1.64,2.97-2.23,4.61-1.33l32.33,17.87c1.64.91,2.23,2.97,1.33,4.61-.61,1.1-1.73,1.73-2.9,1.75Z"/>
        <path class="cls-4" d="m59.41,68.42l-36.91.73c-1.87.04-3.42-1.45-3.46-3.32-.04-1.87,1.45-3.42,3.32-3.46l36.91-.73c1.87-.04,3.42,1.45,3.46,3.32.04,1.87-1.45,3.42-3.32,3.46Z"/>
        <path class="cls-4" d="m27.82,87.56c-1.17.02-2.32-.56-2.97-1.63-.97-1.6-.46-3.69,1.14-4.66l31.59-19.14c1.6-.97,3.69-.46,4.66,1.14.97,1.6.46,3.69-1.14,4.66l-31.59,19.14c-.53.32-1.11.48-1.69.49Z"/>
      </g>
      <circle class="cls-4" cx="115.77" cy="63.9" r="63.9"/>
      <path class="cls-2" d="m114.5.01c-35.28.7-63.32,29.87-62.62,65.16,0,.32.02.65.03.97L115.47,0c-.32,0-.65,0-.97,0Zm31.97,7.83L60.98,96.81c5.39,8.96,12.92,16.47,21.86,21.86L169.19,28.82c-5.74-8.72-13.54-15.94-22.71-20.97Zm32.95,50.42l-66.75,69.46c1.45.07,2.9.09,4.37.06,35.28-.7,63.32-29.87,62.62-65.16-.03-1.47-.11-2.92-.24-4.36Z"/>
    </g>
  </g>
</svg>