<?xml version="1.0" encoding="UTF-8"?>
<svg id="Layer_2" data-name="Layer 2" xmlns="http://www.w3.org/2000/svg" viewBox="0 0 231.58 127.8">
  <defs>
    <style>
      .cls-1 {
        fill: #fa9821;
      }

      .cls-2 {
        fill: #137bcb;
      }

      .cls-3 {
        fill: #fab221;
      }
    </style>
  </defs>
  <g id="Anim">
    <g>
      <path class="cls-2" d="m224.93,82.51h0c-3.68,4.49-4.23,10.77-1.4,15.83h0c6.99,12.47-6.9,26.26-19.29,19.13-16.92-9.74-32.01-26.79-32.01-53.56s15.1-43.83,32.01-53.56c12.39-7.13,26.27,6.67,19.29,19.13h0c-2.84,5.06-2.28,11.34,1.4,15.83h0c8.87,10.82,8.87,26.39,0,37.21Z"/>
      <path class="cls-3" d="m224.93,82.51h0c-3.68,4.49-4.23,10.77-1.4,15.83h0c6.99,12.47-6.9,26.26-19.29,19.13-16.92-9.74-32.01-26.79-32.01-53.56s15.1-43.83,32.01-53.56c12.39-7.13,26.27,6.67,19.29,19.13h0c-2.84,5.06-2.28,11.34,1.4,15.83h0c8.87,10.82,8.87,26.39,0,37.21Z"/>
      <g>
        <path class="cls-1" d="m172.23,67.3c-1.17,0-2.31-.61-2.94-1.69-.94-1.62-.39-3.7,1.24-4.64l31.97-18.51c1.62-.94,3.7-.39,4.64,1.24.94,1.62.39,3.7-1.24,4.64l-31.97,18.51c-.54.31-1.12.46-1.7.46Z"/>
        <path class="cls-1" d="m209.15,67.29h-36.92c-1.87,0-3.39-1.52-3.39-3.39s1.52-3.39,3.39-3.39h36.92c1.87,0,3.39,1.52,3.39,3.39s-1.52,3.39-3.39,3.39Z"/>
        <path class="cls-1" d="m204.2,85.8c-.58,0-1.16-.15-1.7-.46l-31.97-18.51c-1.62-.94-2.18-3.01-1.24-4.64.94-1.62,3.01-2.18,4.64-1.24l31.97,18.51c1.62.94,2.18,3.01,1.24,4.64-.63,1.09-1.77,1.69-2.94,1.69Z"/>
      </g>
      <path class="cls-2" d="m6.65,82.51h0c3.68,4.49,4.23,10.77,1.4,15.83h0c-6.99,12.47,6.9,26.26,19.29,19.13,16.92-9.74,32.01-26.79,32.01-53.56S44.26,20.08,27.34,10.34C14.95,3.21,1.06,17,8.05,29.47h0c2.84,5.06,2.28,11.34-1.4,15.83h0c-8.87,10.82-8.87,26.39,0,37.21Z"/>
      <path class="cls-3" d="m6.65,82.51h0c3.68,4.49,4.23,10.77,1.4,15.83h0c-6.99,12.47,6.9,26.26,19.29,19.13,16.92-9.74,32.01-26.79,32.01-53.56S44.26,20.08,27.34,10.34C14.95,3.21,1.06,17,8.05,29.47h0c2.84,5.06,2.28,11.34-1.4,15.83h0c-8.87,10.82-8.87,26.39,0,37.21Z"/>
      <g>
        <path class="cls-1" d="m59.35,67.3c-.58,0-1.16-.15-1.7-.46l-31.97-18.51c-1.62-.94-2.18-3.01-1.24-4.64.94-1.62,3.01-2.18,4.64-1.24l31.97,18.51c1.62.94,2.18,3.01,1.24,4.64-.63,1.09-1.77,1.69-2.94,1.69Z"/>
        <path class="cls-1" d="m59.35,67.29H22.43c-1.87,0-3.39-1.52-3.39-3.39s1.52-3.39,3.39-3.39h36.92c1.87,0,3.39,1.52,3.39,3.39,0,1.87-1.52,3.39-3.39,3.39Z"/>
        <path class="cls-1" d="m27.39,85.8c-1.17,0-2.31-.61-2.94-1.69-.94-1.62-.39-3.7,1.24-4.64l31.97-18.51c1.62-.94,3.7-.39,4.64,1.24.94,1.62.39,3.7-1.24,4.64l-31.97,18.51c-.54.31-1.12.46-1.7.46Z"/>
      </g>
      <circle class="cls-1" cx="115.79" cy="63.9" r="63.9"/>
      <path class="cls-3" d="m115.79,0C80.5,0,51.89,28.61,51.89,63.9c0,.32,0,.65.01.97L116.76.01c-.32,0-.65-.01-.97-.01Zm31.81,8.47L60.36,95.71c5.21,9.06,12.59,16.73,21.42,22.29L169.89,29.89c-5.56-8.83-13.23-16.2-22.29-21.42Zm31.94,51.06l-68.12,68.12c1.44.1,2.9.15,4.37.15,35.29,0,63.9-28.61,63.9-63.9,0-1.47-.05-2.92-.15-4.37Z"/>
    </g>
  </g>
</svg>